<svg width="193" height="60" viewBox="0 0 193 60" fill="none" xmlns="http://www.w3.org/2000/svg">
<path d="M101.325 15.0751C101.325 17.2372 99.5834 18.979 97.4212 18.979C95.2591 18.979 93.5174 17.2372 93.5174 15.0751C93.5174 12.9129 95.1991 11.1712 97.4212 11.1712C99.6434 11.2312 101.325 12.973 101.325 15.0751ZM85.2292 22.9429V23.9039C85.2292 23.9039 83.3674 21.5015 79.4034 21.5015C72.857 21.5015 67.7519 26.4865 67.7519 33.3934C67.7519 40.2402 72.7969 45.2853 79.4034 45.2853C83.4274 45.2853 85.2292 42.8228 85.2292 42.8228V43.8438C85.2292 44.3243 85.5896 44.6847 86.07 44.6847H90.9348V22.1021H86.07C85.5896 22.1021 85.2292 22.5225 85.2292 22.9429V22.9429ZM85.2292 37.4174C84.3283 38.7387 82.5265 39.8799 80.3644 39.8799C76.5206 39.8799 73.5777 37.4775 73.5777 33.3934C73.5777 29.3093 76.5206 26.9069 80.3644 26.9069C82.4665 26.9069 84.3884 28.1081 85.2292 29.3694V37.4174ZM94.5384 22.1021H100.304V44.6847H94.5384V22.1021ZM180.663 21.5015C176.7 21.5015 174.838 23.9039 174.838 23.9039V11.2312H169.072V44.6847H173.937C174.417 44.6847 174.778 44.2643 174.778 43.8438V42.8228C174.778 42.8228 176.64 45.2853 180.603 45.2853C187.15 45.2853 192.255 40.2402 192.255 33.3934C192.255 26.5465 187.15 21.5015 180.663 21.5015V21.5015ZM179.703 39.8198C177.48 39.8198 175.739 38.6787 174.838 37.3574V29.3093C175.739 28.1081 177.661 26.8468 179.703 26.8468C183.546 26.8468 186.489 29.2492 186.489 33.3333C186.489 37.4174 183.546 39.8198 179.703 39.8198V39.8198ZM166.069 31.2913V44.7447H160.303V31.952C160.303 28.2282 159.102 26.7267 155.859 26.7267C154.117 26.7267 152.315 27.6276 151.174 28.9489V44.6847H145.409V22.1021H149.973C150.454 22.1021 150.814 22.5225 150.814 22.9429V23.9039C152.496 22.1622 154.718 21.5015 156.94 21.5015C159.463 21.5015 161.565 22.2222 163.246 23.6637C165.288 25.3453 166.069 27.5075 166.069 31.2913V31.2913ZM131.415 21.5015C127.451 21.5015 125.589 23.9039 125.589 23.9039V11.2312H119.823V44.6847H124.688C125.169 44.6847 125.529 44.2643 125.529 43.8438V42.8228C125.529 42.8228 127.391 45.2853 131.355 45.2853C137.901 45.2853 143.006 40.2402 143.006 33.3934C143.066 26.5465 137.961 21.5015 131.415 21.5015V21.5015ZM130.454 39.8198C128.232 39.8198 126.49 38.6787 125.589 37.3574V29.3093C126.49 28.1081 128.412 26.8468 130.454 26.8468C134.298 26.8468 137.241 29.2492 137.241 33.3333C137.241 37.4174 134.298 39.8198 130.454 39.8198V39.8198ZM114.838 21.5015C116.58 21.5015 117.481 21.8018 117.481 21.8018V27.1471C117.481 27.1471 112.676 25.5255 109.673 28.9489V44.7447H103.908V22.1021H108.772C109.253 22.1021 109.613 22.5225 109.613 22.9429V23.9039C110.694 22.6426 113.037 21.5015 114.838 21.5015V21.5015ZM54.9593 42.6426C54.659 41.9219 54.3587 41.1411 54.0584 40.4805C53.5779 39.3994 53.0975 38.3784 52.677 37.4174L52.617 37.3574C48.4729 28.3483 44.0285 19.2192 39.3439 10.2102L39.1637 9.84985C38.6832 8.94895 38.2027 7.98799 37.7223 7.02703C37.1217 5.94595 36.5211 4.8048 35.5601 3.72372C33.6382 1.32132 30.8755 0 27.9326 0C24.9296 0 22.227 1.32132 20.245 3.6036C19.3441 4.68468 18.6835 5.82583 18.0829 6.90691C17.6024 7.86787 17.1219 8.82883 16.6414 9.72973L16.4613 10.0901C11.8367 19.0991 7.33224 28.2282 3.18815 37.2372L3.12809 37.3574C2.70768 38.3183 2.2272 39.3393 1.74673 40.4204C1.44643 41.0811 1.14613 41.8018 0.845836 42.5826C0.0650644 44.8048 -0.175173 46.9069 0.125124 49.0691C0.785776 53.5736 3.78874 57.3574 7.93284 59.039C9.49438 59.6997 11.116 60 12.7976 60C13.2781 60 13.8787 59.9399 14.3592 59.8799C16.3411 59.6396 18.3832 58.979 20.3651 57.8378C22.8276 56.4565 25.1699 54.4745 27.8125 51.5916C30.4551 54.4745 32.8575 56.4565 35.2598 57.8378C37.2418 58.979 39.2838 59.6396 41.2658 59.8799C41.7462 59.9399 42.3468 60 42.8273 60C44.509 60 46.1906 59.6997 47.6921 59.039C51.8963 57.3574 54.8392 53.5135 55.4998 49.0691C55.9803 46.967 55.7401 44.8649 54.9593 42.6426ZM27.8725 45.7658C24.6293 41.6817 22.5273 37.8378 21.8065 34.5946C21.5062 33.2132 21.4462 32.012 21.6264 30.9309C21.7465 29.97 22.1068 29.1291 22.5873 28.4084C23.7284 26.7868 25.6503 25.7658 27.8725 25.7658C30.0947 25.7658 32.0767 26.7267 33.1578 28.4084C33.6382 29.1291 33.9986 29.97 34.1187 30.9309C34.2989 32.012 34.2388 33.2733 33.9385 34.5946C33.2178 37.7778 31.1157 41.6216 27.8725 45.7658V45.7658ZM51.8362 48.5886C51.4158 51.7117 49.3137 54.4144 46.3708 55.6156C44.9294 56.2162 43.3678 56.3964 41.8063 56.2162C40.3048 56.036 38.8033 55.5556 37.2418 54.6547C35.0797 53.4535 32.9175 51.5916 30.395 48.8288C34.3589 43.964 36.7613 39.5195 37.6622 35.5556C38.0826 33.6937 38.1427 32.012 37.9625 30.4505C37.7223 28.9489 37.1817 27.5676 36.3409 26.3664C34.4791 23.6637 31.356 22.1021 27.8725 22.1021C24.3891 22.1021 21.266 23.7237 19.4042 26.3664C18.5633 27.5676 18.0228 28.9489 17.7826 30.4505C17.5423 32.012 17.6024 33.7538 18.0829 35.5556C18.9838 39.5195 21.4462 44.024 25.35 48.8889C22.8876 51.6517 20.6654 53.5135 18.5033 54.7147C16.9417 55.6156 15.4403 56.0961 13.9388 56.2763C12.3172 56.4565 10.7556 56.2162 9.37426 55.6757C6.43135 54.4745 4.32928 51.7718 3.90886 48.6486C3.72868 47.1471 3.8488 45.6456 4.4494 43.964C4.62957 43.3634 4.92987 42.7628 5.23017 42.042C5.65058 41.0811 6.13106 40.0601 6.61153 39.039L6.67159 38.9189C10.8157 29.97 15.2601 20.8408 19.8846 11.952L20.0648 11.5916C20.5453 10.6907 21.0258 9.72973 21.5062 8.82883C21.9867 7.86787 22.5273 6.96697 23.1879 6.18619C24.4492 4.74474 26.1308 3.96396 27.9927 3.96396C29.8545 3.96396 31.5362 4.74474 32.7974 6.18619C33.4581 6.96697 33.9986 7.86787 34.4791 8.82883C34.9595 9.72973 35.44 10.6907 35.9205 11.5916L36.1007 11.952C40.6652 20.9009 45.1096 30.03 49.2537 38.979V39.039C49.7341 40 50.1545 41.0811 50.635 42.042C50.9353 42.7628 51.2356 43.3634 51.4158 43.964C51.8963 45.5255 52.0764 47.027 51.8362 48.5886V48.5886Z" fill="#424147"/>
</svg>
