<svg width="193" height="39" viewBox="0 0 193 39" fill="none" xmlns="http://www.w3.org/2000/svg">
<path d="M8.73217 19.322L4.3642 23.6863L0 19.322L4.3642 14.9578L8.73217 19.322ZM19.3218 8.72473L26.8006 16.2074L31.1647 11.8431L19.3218 0L7.47878 11.8431L11.843 16.2074L19.3218 8.72473ZM34.2831 14.9578L29.9189 19.322L34.2831 23.6863L38.6435 19.322L34.2831 14.9578ZM19.3218 29.9193L11.843 22.4404L7.47878 26.8009L19.3218 38.644L31.1647 26.8009L26.8006 22.4404L19.3218 29.9193ZM19.3218 23.6863L23.686 19.322L19.3218 14.9578L14.9576 19.322L19.3218 23.6863ZM65.3799 24.1053V24.0449C65.3799 21.1983 63.8698 19.775 61.4121 18.8388C62.9222 17.9893 64.1982 16.6566 64.1982 14.2669V14.2065C64.1982 10.8767 61.5329 8.72473 57.2027 8.72473H47.3719V29.9193H57.4519C62.2351 29.9193 65.3875 27.9826 65.3875 24.1053H65.3799ZM59.566 15.0446C59.566 16.6189 58.2635 17.2871 56.206 17.2871H51.9136V12.8134H56.5156C58.4825 12.8134 59.5736 13.5986 59.5736 14.9917L59.566 15.0446ZM60.7477 23.5239C60.7477 25.0982 59.5056 25.8231 57.4443 25.8231H51.9136V21.1681H57.3008C59.6944 21.1681 60.7552 22.0478 60.7552 23.4711L60.7477 23.5239ZM75.1767 29.9193V8.72473H70.4991V29.9193H75.1767ZM100.241 29.9193V8.72473H95.6235V21.776L85.6946 8.72473H81.3945V29.9193H85.9966V16.4452L96.2577 29.9193H100.241ZM126.067 29.9193L116.969 8.57371H112.669L103.589 29.9193H108.342L110.287 25.1662H119.249L121.186 29.9193H126.067ZM117.592 21.0473H111.944L114.76 14.1763L117.592 21.0473ZM148.292 29.9193V8.72473H143.675V21.776L133.742 8.72473H129.446V29.9193H134.044V16.4452L144.309 29.9193H148.292ZM172.359 26.4989L169.396 23.5013C167.731 25.0114 166.247 25.9816 163.823 25.9816C160.192 25.9816 157.677 22.9614 157.677 19.322V19.2616C157.677 15.6298 160.252 12.6624 163.823 12.6624C165.941 12.6624 167.599 13.5684 169.245 15.0521L172.201 11.6317C170.234 9.69498 167.844 8.3623 163.846 8.3623C157.338 8.3623 152.796 13.2966 152.796 19.3107V19.3711C152.796 25.4569 157.428 30.2704 163.665 30.2704C167.746 30.2817 170.166 28.8282 172.344 26.4989H172.359ZM192.255 29.9193V25.7665H180.733V21.3078H190.726V17.155H180.733V12.8738H192.089V8.72095H176.101V29.9155L192.255 29.9193Z" fill="#424147"/>
</svg>
