<svg width="189" height="42" viewBox="0 0 189 42" fill="none" xmlns="http://www.w3.org/2000/svg">
<path fill-rule="evenodd" clip-rule="evenodd" d="M14.7105 36.0522C16.1753 36.0522 17.5455 35.7844 18.837 35.2647C18.837 35.3119 21.4673 39.3912 21.5145 39.407C19.1865 40.6542 16.5795 41.2883 13.9388 41.2498C5.859 41.2655 0 35.9262 0 27.4368C0 18.8845 6.1425 13.5767 13.9388 13.5767C16.695 13.5767 18.8843 14.1752 21.0735 15.3407L18.5535 19.5932C17.2305 19.0735 15.876 18.8372 14.4585 18.8372C9.68625 18.8372 5.985 21.877 5.985 27.4368C5.985 32.6974 9.56025 36.0522 14.7105 36.0522ZM35.0753 13.5767C43.0133 13.5767 48.762 19.1995 48.762 27.4368C48.762 35.6269 43.0133 41.2498 35.0595 41.2498C27.1845 41.2498 21.4358 35.6269 21.4358 27.4368C21.4358 19.1995 27.1845 13.5767 35.0753 13.5767V13.5767ZM35.0753 18.6482C30.6495 18.6482 27.4208 22.066 27.4208 27.4368C27.4208 32.7604 30.6495 36.1782 35.0753 36.1782C39.6113 36.1782 42.7928 32.7604 42.7928 27.4368C42.7928 22.066 39.6113 18.6482 35.0753 18.6482V18.6482ZM52.5262 40.6513V14.1752H58.4483V40.6355H52.5262V40.6513ZM51.7387 6.03232C51.8002 5.09037 52.2177 4.20706 52.9065 3.56165C53.5953 2.91625 54.5039 2.55711 55.4479 2.55711C56.3918 2.55711 57.3004 2.91625 57.9893 3.56165C58.6781 4.20706 59.0956 5.09037 59.157 6.03232C59.1572 7.02136 58.7698 7.97108 58.0779 8.67776C57.3859 9.38444 56.4446 9.79177 55.4558 9.81237C54.4669 9.79177 53.5256 9.38444 52.8337 8.67776C52.1417 7.97108 51.7543 7.02136 51.7545 6.03232H51.7387ZM63.6143 15.8447C67.4934 14.3866 71.5979 13.619 75.7418 13.5767C82.5143 13.5767 86.7983 16.144 86.7983 23.6095V40.6513H80.955V24.1608C80.955 20.3335 78.5768 18.9632 75.285 18.9632C73.1903 18.9632 71.0955 19.2467 69.5363 19.735V40.6355H63.63V15.8447H63.6143ZM91.7595 0H97.6815V14.8839C98.9415 14.2224 101.383 13.5767 103.714 13.5767C111.368 13.5767 117.101 18.4592 117.101 26.9643C117.101 35.5167 111.431 41.2498 101.635 41.2498C97.8075 41.2498 94.4528 40.4623 91.7595 39.5172V0V0ZM97.6815 35.6269C98.8155 35.9892 100.312 36.1782 101.808 36.1782C107.242 36.1782 111.132 33.1857 111.132 27.0903C111.132 21.94 107.478 18.9002 103.005 18.9002C100.674 18.9002 98.8785 19.4987 97.6815 20.1603V35.6269ZM134.222 22.9008C134.222 20.0342 132.048 18.7112 129.119 18.7112C126.079 18.7112 123.685 19.609 121.48 20.869V15.7187C124.118 14.2852 127.077 13.5479 130.079 13.5767C135.875 13.5767 140.002 15.9707 140.002 22.6015V40.1157C137.482 40.7773 133.907 41.1868 130.914 41.1868C124.047 41.1868 119.023 39.1077 119.023 33.1227C119.023 27.7361 123.622 25.1058 131.276 25.1058H134.206V22.9008H134.222ZM134.222 29.0434H131.702C127.575 29.0434 124.882 30.2561 124.882 32.9494C124.882 35.6899 127.402 36.761 130.977 36.761C131.875 36.761 133.135 36.6507 134.206 36.4775V29.0591L134.222 29.0434ZM144.302 33.4849C146.61 35.3136 149.439 36.3615 152.381 36.4775C155.012 36.4775 156.744 35.5797 156.744 33.4849C156.744 31.3271 155.185 30.5554 151.783 29.6576C146.27 28.3976 143.955 26.1926 143.955 21.5778C143.955 16.207 148.019 13.5767 153.405 13.5767C156.398 13.5767 158.776 14.2224 160.997 15.6084V21.0423C158.886 19.3577 156.278 18.4165 153.578 18.3647C151.011 18.3647 149.641 19.6247 149.641 21.3573C149.641 23.0898 150.759 23.9718 153.815 24.8223C159.863 26.1296 162.477 28.3976 162.477 33.1699C162.477 38.7455 158.24 41.2498 152.507 41.2498C149.632 41.3072 146.797 40.5657 144.317 39.1077V33.4849H144.302ZM170.588 28.7599V28.8701C170.951 33.5952 174.998 36.1782 179.141 36.1782C182.779 36.1782 185.409 35.3277 188.039 33.5952V38.7927C185.645 40.478 182.117 41.2498 178.715 41.2498C170.462 41.2498 164.855 35.9892 164.855 27.6258C164.855 19.1995 170.352 13.5767 177.644 13.5767C185.362 13.5767 189 18.538 189 25.7673V28.7599H170.573H170.588ZM183.44 24.9326C183.314 20.806 181.283 18.538 177.455 18.538C174.053 18.538 171.549 20.932 170.762 24.9326H183.44Z" fill="#424147"/>
</svg>
