<svg width="193" height="38" viewBox="0 0 193 38" fill="none" xmlns="http://www.w3.org/2000/svg">
<path d="M22.3111 7.12065L11.1555 14.2413L22.3111 21.3619L11.1555 28.4826L0 21.3026L11.1555 14.182L0 7.12065L11.1555 0L22.3111 7.12065ZM11.0962 30.7375L22.2517 23.6168L33.4073 30.7375L22.2517 37.8581L11.0962 30.7375ZM22.3111 21.3026L33.4666 14.182L22.3111 7.12065L33.4073 0L44.5628 7.12065L33.4073 14.2413L44.5628 21.3619L33.4073 28.4826L22.3111 21.3026Z" fill="#424147"/>
<path d="M53.2832 7.1204H62.3026C68.0584 7.1204 72.8054 10.4434 72.8054 18.0387V19.6409C72.8054 27.2956 68.355 30.7372 62.4806 30.7372H53.2832V7.1204ZM58.3269 11.3928V26.4055H62.1839C65.4475 26.4055 67.643 24.2693 67.643 19.5222V18.2761C67.643 13.529 65.3288 11.3928 62.0059 11.3928H58.3269ZM75.4756 11.6301H79.5106L80.1633 16.0805C80.9347 13.0543 82.8928 11.4521 86.4531 11.4521H87.6992V16.5553H85.6224C81.5281 16.5553 80.5193 17.9794 80.5193 22.0144V30.7966H75.5349V11.6301H75.4756ZM88.708 21.5991V21.065C88.708 14.6564 92.8023 11.1554 98.3801 11.1554C104.076 11.1554 108.052 14.6564 108.052 21.065V21.5991C108.052 27.889 104.195 31.2713 98.3801 31.2713C92.2089 31.2119 88.708 27.889 88.708 21.5991V21.5991ZM102.949 21.5397V21.065C102.949 17.5047 101.169 15.3685 98.3207 15.3685C95.5318 15.3685 93.6923 17.3267 93.6923 21.065V21.5397C93.6923 24.9814 95.4725 26.9395 98.3207 26.9395C101.169 26.8802 102.949 24.9814 102.949 21.5397ZM110.663 11.6301H114.817L115.291 15.2498C116.3 12.8169 118.436 11.1554 121.581 11.1554C126.447 11.1554 129.651 14.6564 129.651 21.1243V21.6584C129.651 27.9483 126.091 31.2713 121.581 31.2713C118.555 31.2713 116.478 29.9065 115.469 27.7109V37.3832H110.604L110.663 11.6301ZM124.607 21.5397V21.1243C124.607 17.3267 122.649 15.4278 120.038 15.4278C117.25 15.4278 115.41 17.564 115.41 21.1243V21.4804C115.41 24.8627 117.19 26.9989 119.979 26.9989C122.827 26.9395 124.607 25.1 124.607 21.5397ZM137.009 27.2362L136.594 30.7372H132.321V5.22156H137.187V15.0125C138.255 12.5202 140.391 11.1554 143.418 11.1554C147.987 11.2148 151.369 14.3597 151.369 20.709V21.3024C151.369 27.6516 148.165 31.2713 143.299 31.2713C140.095 31.2119 138.018 29.7285 137.009 27.2362V27.2362ZM146.266 21.3024V20.8276C146.266 17.3267 144.367 15.3685 141.697 15.3685C138.967 15.3685 137.068 17.564 137.068 20.887V21.3024C137.068 24.8627 138.908 26.9395 141.637 26.9395C144.545 26.9395 146.266 25.1 146.266 21.3024V21.3024ZM153.505 21.5991V21.065C153.505 14.6564 157.599 11.1554 163.177 11.1554C168.874 11.1554 172.849 14.6564 172.849 21.065V21.5991C172.849 27.889 168.933 31.2713 163.177 31.2713C157.006 31.2119 153.505 27.889 153.505 21.5991V21.5991ZM167.805 21.5397V21.065C167.805 17.5047 166.025 15.3685 163.177 15.3685C160.388 15.3685 158.549 17.3267 158.549 21.065V21.5397C158.549 24.9814 160.329 26.9395 163.177 26.9395C166.025 26.8802 167.805 24.9814 167.805 21.5397ZM179.376 20.8276L172.671 11.6301H178.427L182.284 17.386L186.2 11.6301H191.897L185.073 20.7683L192.253 30.7372H186.616L182.225 24.388L177.952 30.7372H172.078L179.376 20.8276Z" fill="#424147"/>
</svg>
