<svg width="726" height="517" viewBox="0 0 726 517" fill="none" xmlns="http://www.w3.org/2000/svg">
<g filter="url(#filter0_b_33_463)">
<rect width="264.531" height="422.061" rx="20" transform="matrix(0.876357 0.481662 -0.85531 0.518117 437.828 161.714)" fill="url(#paint0_linear_33_463)"/>
<rect x="0.0105235" y="0.499889" width="263.531" height="421.061" rx="19.5" transform="matrix(0.876357 0.481662 -0.85531 0.518117 438.257 161.95)" stroke="url(#paint1_linear_33_463)"/>
</g>
<g filter="url(#filter1_d_33_463)">
<rect x="0.00726038" y="0.344885" width="263.841" height="421.74" rx="13.4535" transform="matrix(0.876357 0.481662 -0.85531 0.518117 430.788 95.1541)" fill="url(#paint2_linear_33_463)" stroke="url(#paint3_linear_33_463)" stroke-width="0.689923"/>
<g opacity="0.9">
<rect opacity="0.75" x="-0.0052617" y="-0.249945" width="28.9101" height="28.9101" rx="14.4551" transform="matrix(-0.876357 -0.481662 0.85531 -0.518116 301.93 419.69)" stroke="url(#paint4_linear_33_463)" stroke-width="0.5"/>
<rect opacity="0.7" x="-0.0052617" y="-0.249945" width="28.9101" height="28.9101" rx="14.4551" transform="matrix(-0.876357 -0.481662 0.85531 -0.518116 286.372 411.138)" stroke="url(#paint5_linear_33_463)" stroke-width="0.5"/>
</g>
<g filter="url(#filter2_d_33_463)">
<path d="M141.475 299.046L135.059 301.206L134.123 300.691L136.788 297.853L131.939 299.491L131.003 298.985L134.502 295.214L135.38 295.696L132.417 298.698L137.557 296.892L138.486 297.403L135.551 300.396L140.59 298.559L141.475 299.046ZM142.007 303.862L139.895 302.702L138.527 303.112L137.664 302.637L144.399 300.645L145.356 301.171L142.235 305.149L141.364 304.671L142.007 303.862ZM142.433 303.336L143.9 301.5L140.786 302.431L142.433 303.336ZM146.524 307.507L146.775 305.101L144.573 306.435L143.746 305.98L148.667 302.999L149.494 303.453L147.249 304.813L151.453 304.53L152.491 305.1L147.835 305.389L147.605 308.101L146.524 307.507ZM153.285 311.28C152.946 311.094 152.698 310.892 152.54 310.675C152.388 310.454 152.34 310.237 152.398 310.024C152.455 309.81 152.626 309.617 152.909 309.446L153.794 309.932C153.601 310.071 153.511 310.224 153.524 310.389C153.542 310.557 153.689 310.717 153.964 310.868C154.25 311.025 154.538 311.107 154.83 311.115C155.127 311.12 155.381 311.058 155.594 310.929C155.759 310.829 155.843 310.72 155.845 310.601C155.852 310.485 155.809 310.369 155.716 310.252C155.627 310.138 155.485 309.989 155.29 309.805C155.046 309.573 154.863 309.374 154.74 309.208C154.626 309.042 154.589 308.864 154.628 308.672C154.667 308.481 154.84 308.292 155.147 308.107C155.43 307.935 155.751 307.825 156.108 307.776C156.466 307.727 156.832 307.74 157.206 307.815C157.581 307.89 157.94 308.022 158.283 308.21C158.772 308.479 159.05 308.771 159.119 309.087C159.197 309.403 159.046 309.696 158.664 309.966L157.75 309.464C157.915 309.347 157.981 309.206 157.949 309.041C157.917 308.876 157.77 308.722 157.509 308.579C157.272 308.448 157.02 308.378 156.752 308.367C156.484 308.356 156.239 308.418 156.017 308.552C155.866 308.643 155.787 308.745 155.779 308.855C155.782 308.965 155.827 309.078 155.916 309.192C156.004 309.306 156.141 309.452 156.326 309.63C156.571 309.868 156.752 310.071 156.87 310.24C156.993 310.411 157.033 310.594 156.989 310.788C156.955 310.982 156.782 311.173 156.471 311.362C156.22 311.514 155.914 311.618 155.552 311.675C155.195 311.735 154.815 311.734 154.412 311.67C154.018 311.607 153.643 311.477 153.285 311.28ZM162.518 310.612L159.381 312.512C159.008 312.738 158.827 312.963 158.836 313.186C158.85 313.412 159.037 313.623 159.395 313.82C159.757 314.019 160.132 314.116 160.519 314.111C160.911 314.108 161.294 313.994 161.667 313.768L164.804 311.868L165.631 312.322L162.508 314.214C162.107 314.457 161.677 314.614 161.22 314.684C160.762 314.755 160.315 314.749 159.879 314.667C159.442 314.585 159.042 314.444 158.679 314.245C158.316 314.046 158.054 313.822 157.891 313.574C157.732 313.329 157.706 313.074 157.81 312.81C157.914 312.546 158.167 312.292 158.568 312.049L161.691 310.157L162.518 310.612ZM166.655 318.571L165.828 318.117L167.014 314.523L163.339 316.749L162.512 316.294L167.44 313.309L168.268 313.763L167.088 317.353L170.756 315.131L171.583 315.586L166.655 318.571ZM172.512 320.629L170.401 319.468L169.032 319.878L168.169 319.404L174.904 317.411L175.862 317.937L172.74 321.916L171.869 321.437L172.512 320.629ZM172.938 320.102L174.406 318.266L171.291 319.197L172.938 320.102ZM176.87 324.186L177.678 322.355L177.047 322.008L175.078 323.201L174.251 322.746L179.172 319.765L180.914 320.722C181.301 320.935 181.561 321.154 181.695 321.381C181.834 321.61 181.857 321.827 181.766 322.033C181.68 322.242 181.499 322.429 181.226 322.595C180.905 322.79 180.515 322.914 180.057 322.968C179.609 323.021 179.139 322.968 178.648 322.807L177.857 324.728L176.87 324.186ZM177.691 321.618L178.605 322.121C178.915 322.291 179.222 322.373 179.528 322.366C179.839 322.362 180.122 322.283 180.377 322.129C180.632 321.974 180.753 321.812 180.739 321.641C180.731 321.467 180.57 321.294 180.255 321.121L179.341 320.619L177.691 321.618ZM185.309 323.138L180.388 326.119L179.561 325.665L184.482 322.683L185.309 323.138Z" fill="white"/>
</g>
<g filter="url(#filter3_d_33_463)">
<path d="M114.412 307.657C115.089 307.247 115.729 306.99 116.332 306.885C116.94 306.778 117.526 306.879 118.09 307.19C118.65 307.498 118.852 307.829 118.696 308.184C118.544 308.537 118.13 308.919 117.454 309.328C116.765 309.745 116.117 310.008 115.51 310.115C114.903 310.222 114.319 310.121 113.758 309.813C113.194 309.503 112.99 309.171 113.146 308.815C113.302 308.46 113.724 308.074 114.412 307.657ZM116.909 309.029C117.252 308.822 117.517 308.634 117.704 308.464C117.9 308.294 117.998 308.125 117.998 307.958C118.003 307.792 117.87 307.635 117.6 307.486C117.326 307.336 117.044 307.265 116.753 307.273C116.466 307.284 116.179 307.348 115.89 307.467C115.61 307.586 115.299 307.749 114.956 307.956C114.602 308.17 114.328 308.363 114.132 308.532C113.94 308.704 113.842 308.873 113.838 309.039C113.837 309.207 113.974 309.366 114.248 309.517C114.518 309.665 114.797 309.734 115.083 309.723C115.374 309.715 115.661 309.65 115.946 309.529C116.234 309.41 116.555 309.244 116.909 309.029ZM121.719 310.432C122.067 310.119 122.01 309.835 121.546 309.58C121.187 309.383 120.784 309.318 120.335 309.385C119.89 309.449 119.361 309.67 118.747 310.046C119.044 309.973 119.357 309.961 119.685 310.009C120.02 310.057 120.321 310.155 120.587 310.301C121.002 310.529 121.207 310.787 121.201 311.075C121.199 311.364 120.976 311.644 120.532 311.913C120.264 312.075 119.97 312.191 119.648 312.26C119.331 312.331 119.001 312.345 118.657 312.301C118.318 312.26 117.995 312.155 117.688 311.987C117.273 311.759 117.039 311.526 116.986 311.288C116.934 311.049 117.02 310.808 117.246 310.564C117.472 310.32 117.819 310.057 118.287 309.773C119.731 308.898 120.969 308.745 122.001 309.312C122.396 309.529 122.602 309.763 122.619 310.013C122.636 310.263 122.506 310.496 122.227 310.711L121.719 310.432ZM120.018 310.513C119.845 310.418 119.646 310.349 119.422 310.308C119.202 310.264 118.973 310.259 118.734 310.291C118.504 310.324 118.288 310.401 118.088 310.522C117.789 310.704 117.634 310.9 117.622 311.112C117.615 311.321 117.776 311.517 118.107 311.699C118.389 311.854 118.697 311.925 119.031 311.914C119.374 311.902 119.691 311.808 119.982 311.632C120.289 311.446 120.448 311.256 120.46 311.063C120.476 310.867 120.328 310.683 120.018 310.513ZM127.574 310.984L119.356 314.049L118.812 313.75L127.024 310.682L127.574 310.984ZM123.109 314.455C124.022 314.493 124.752 314.515 125.298 314.519C125.848 314.521 126.361 314.492 126.838 314.432C127.323 314.371 127.701 314.258 127.972 314.094C128.228 313.939 128.364 313.782 128.381 313.623C128.405 313.464 128.276 313.306 127.994 313.151C127.72 313.001 127.422 312.935 127.099 312.953C126.785 312.971 126.482 313.061 126.191 313.224L125.659 312.931C126.115 312.673 126.593 312.543 127.091 312.539C127.589 312.535 128.041 312.645 128.448 312.869C128.864 313.097 129.08 313.346 129.098 313.615C129.119 313.886 128.933 314.14 128.54 314.379C128.213 314.576 127.794 314.714 127.282 314.791C126.777 314.869 126.28 314.909 125.79 314.913C125.304 314.914 124.708 314.9 124.002 314.871L126.082 316.014L125.634 316.286L122.726 314.687L123.109 314.455ZM128.4 315.345C129.077 314.935 129.717 314.678 130.32 314.573C130.927 314.466 131.513 314.567 132.078 314.878C132.638 315.185 132.84 315.517 132.684 315.872C132.532 316.225 132.118 316.606 131.441 317.016C130.753 317.433 130.105 317.695 129.498 317.803C128.89 317.91 128.306 317.809 127.746 317.501C127.182 317.191 126.978 316.858 127.134 316.503C127.289 316.148 127.712 315.762 128.4 315.345ZM130.897 316.717C131.239 316.51 131.504 316.321 131.692 316.152C131.888 315.982 131.986 315.813 131.986 315.645C131.991 315.48 131.858 315.323 131.588 315.174C131.314 315.024 131.031 314.952 130.741 314.961C130.454 314.972 130.166 315.036 129.878 315.155C129.598 315.274 129.286 315.437 128.944 315.644C128.59 315.858 128.315 316.05 128.12 316.22C127.928 316.392 127.83 316.561 127.826 316.727C127.825 316.895 127.962 317.054 128.236 317.205C128.506 317.353 128.784 317.422 129.071 317.411C129.362 317.403 129.649 317.338 129.934 317.217C130.222 317.098 130.543 316.932 130.897 316.717ZM130.383 318.453C131.297 318.491 132.026 318.513 132.572 318.517C133.122 318.52 133.635 318.49 134.112 318.43C134.597 318.369 134.975 318.256 135.246 318.092C135.502 317.937 135.638 317.78 135.655 317.621C135.679 317.462 135.551 317.305 135.268 317.149C134.994 316.999 134.696 316.933 134.374 316.951C134.059 316.969 133.757 317.059 133.465 317.222L132.933 316.929C133.39 316.671 133.867 316.541 134.365 316.537C134.863 316.533 135.316 316.644 135.723 316.867C136.138 317.096 136.354 317.344 136.372 317.613C136.393 317.884 136.208 318.138 135.814 318.377C135.488 318.574 135.068 318.712 134.556 318.79C134.052 318.867 133.554 318.907 133.064 318.911C132.578 318.912 131.982 318.898 131.277 318.869L133.357 320.012L132.908 320.284L130 318.685L130.383 318.453ZM134.314 320.013L134.721 319.767L139.711 319.196L140.37 319.558L137.561 321.26L138.166 321.592L137.7 321.874L137.095 321.542L136.145 322.117L135.601 321.818L136.551 321.243L134.314 320.013ZM139.29 319.612L135.415 320.08L137.041 320.974L139.29 319.612Z" fill="white" fill-opacity="0.7" shape-rendering="crispEdges"/>
</g>
<rect x="0.0105235" y="0.499889" width="35.946" height="27.299" rx="1.5" transform="matrix(0.876357 0.481662 -0.85531 0.518117 288.052 296.785)" stroke="white"/>
<g style="mix-blend-mode:overlay">
<path d="M271.603 326.655C269.818 326.455 266.137 325.527 265.689 323.411M269.269 330.517C266.499 330.167 260.589 328.562 259.104 324.942M267.533 334.124C263.844 333.619 255.814 331.342 253.21 326.267M265.032 337.661C260.539 337.145 250.683 334.465 247.197 327.878" stroke="white" stroke-width="1.37985" stroke-linecap="round" stroke-linejoin="round"/>
</g>
</g>
<g filter="url(#filter4_d_33_463)">
<g filter="url(#filter5_b_33_463)">
<rect width="264.531" height="422.43" rx="13.7985" transform="matrix(0.876357 0.481662 -0.85531 0.518117 391.02 14.0803)" fill="url(#paint6_linear_33_463)"/>
<rect x="0.00726038" y="0.344885" width="263.841" height="421.74" rx="13.4535" transform="matrix(0.876357 0.481662 -0.85531 0.518117 391.316 14.243)" stroke="url(#paint7_linear_33_463)" stroke-width="0.689923"/>
</g>
<g filter="url(#filter6_b_33_463)">
<path d="M161.257 153.263L393.08 280.678L285.14 346.064C274.013 352.805 268.449 356.175 261.451 356.322C254.452 356.469 248.752 353.336 237.351 347.07L53.897 246.24C42.4963 239.974 36.7959 236.841 36.7108 232.801C36.6257 228.76 42.1892 225.39 53.3162 218.65L161.257 153.263Z" fill="url(#paint8_linear_33_463)"/>
</g>
<path d="M502.541 118.131L495.127 122.622L493.604 121.785L496.758 119.874L493.504 118.085L490.349 119.996L488.826 119.159L496.24 114.668L497.763 115.505L494.715 117.352L497.969 119.14L501.018 117.294L502.541 118.131ZM499.208 124.976C498.628 124.657 498.23 124.294 498.013 123.889C497.804 123.48 497.795 123.062 497.987 122.635C498.186 122.213 498.586 121.819 499.188 121.455C499.79 121.09 500.455 120.842 501.184 120.711C501.92 120.584 502.648 120.574 503.367 120.684C504.094 120.788 504.747 121 505.328 121.319C505.908 121.638 506.307 122.005 506.523 122.418C506.747 122.828 506.763 123.245 506.571 123.672C506.387 124.102 505.993 124.5 505.392 124.864C504.79 125.229 504.117 125.473 503.374 125.596C502.638 125.723 501.903 125.733 501.169 125.624C500.45 125.515 499.796 125.299 499.208 124.976ZM500.504 124.191C500.78 124.342 501.101 124.445 501.468 124.5C501.849 124.554 502.244 124.541 502.651 124.462C503.058 124.383 503.449 124.23 503.824 124.003C504.384 123.664 504.66 123.321 504.653 122.973C504.66 122.625 504.445 122.331 504.01 122.092C503.575 121.853 503.056 121.744 502.454 121.765C501.866 121.785 501.293 121.965 500.734 122.304C500.174 122.643 499.884 122.982 499.862 123.322C499.855 123.662 500.069 123.951 500.504 124.191ZM506.149 128.79C505.568 128.471 505.17 128.109 504.953 127.704C504.744 127.294 504.735 126.876 504.927 126.45C505.126 126.027 505.526 125.634 506.128 125.269C506.73 124.904 507.395 124.657 508.124 124.525C508.86 124.398 509.588 124.389 510.307 124.498C511.034 124.603 511.687 124.815 512.268 125.134C512.848 125.453 513.247 125.819 513.463 126.233C513.687 126.642 513.703 127.06 513.511 127.486C513.327 127.916 512.934 128.314 512.332 128.679C511.73 129.043 511.057 129.287 510.314 129.41C509.578 129.538 508.843 129.547 508.109 129.438C507.39 129.329 506.736 129.113 506.149 128.79ZM507.444 128.005C507.72 128.157 508.041 128.26 508.408 128.314C508.79 128.368 509.184 128.356 509.591 128.277C509.998 128.198 510.389 128.045 510.764 127.817C511.324 127.478 511.6 127.135 511.593 126.787C511.6 126.44 511.385 126.146 510.95 125.907C510.515 125.667 509.996 125.558 509.394 125.579C508.807 125.6 508.233 125.78 507.674 126.118C507.114 126.457 506.824 126.797 506.802 127.137C506.795 127.476 507.009 127.766 507.444 128.005Z" fill="white"/>
<path d="M518.619 131.14C518.97 131.423 519.113 131.743 519.048 132.1C518.984 132.458 518.733 132.769 518.294 133.035C517.897 133.276 517.445 133.432 516.937 133.505C516.444 133.577 515.924 133.561 515.376 133.457C514.829 133.353 514.298 133.159 513.783 132.876L510.507 131.075L517.921 126.584L521.055 128.307C521.571 128.59 521.932 128.882 522.139 129.184C522.353 129.49 522.41 129.783 522.308 130.063C522.214 130.346 521.982 130.6 521.614 130.823C521.182 131.084 520.701 131.237 520.171 131.282C519.649 131.33 519.132 131.283 518.619 131.14ZM516.386 129.275L517.779 130.04C518.141 130.24 518.499 130.346 518.85 130.359C519.209 130.368 519.537 130.283 519.835 130.102C520.132 129.922 520.264 129.729 520.231 129.523C520.198 129.316 520 129.114 519.637 128.914L518.244 128.149L516.386 129.275ZM514.776 132.022C515.146 132.226 515.518 132.332 515.891 132.341C516.271 132.353 516.617 132.265 516.929 132.077C517.247 131.883 517.386 131.674 517.346 131.447C517.312 131.216 517.11 130.998 516.74 130.795L515.238 129.969L513.242 131.179L514.776 132.022ZM520.072 132.908C520.667 132.548 521.314 132.294 522.014 132.147C522.721 132.004 523.405 131.971 524.066 132.048C524.735 132.129 525.327 132.311 525.842 132.594C526.292 132.842 526.595 133.11 526.752 133.401C526.916 133.696 526.965 133.98 526.899 134.255L527.738 133.747L529.273 134.59L523.388 138.155L521.854 137.311L522.714 136.79C522.242 136.85 521.74 136.84 521.207 136.76C520.689 136.68 520.205 136.516 519.755 136.269C519.248 135.99 518.911 135.657 518.745 135.271C518.586 134.89 518.614 134.492 518.827 134.077C519.055 133.663 519.47 133.273 520.072 132.908ZM524.796 135.529C525.157 135.31 525.392 135.084 525.502 134.85C525.619 134.611 525.622 134.383 525.509 134.166C525.404 133.945 525.21 133.757 524.927 133.601C524.644 133.446 524.316 133.343 523.942 133.293C523.568 133.243 523.174 133.255 522.759 133.33C522.359 133.405 521.982 133.549 521.628 133.764C521.274 133.978 521.035 134.207 520.911 134.449C520.802 134.692 520.796 134.922 520.894 135.139C520.999 135.361 521.189 135.547 521.465 135.699C521.748 135.854 522.08 135.959 522.461 136.013C522.849 136.063 523.243 136.05 523.643 135.976C524.051 135.897 524.435 135.748 524.796 135.529ZM534.187 137.193C534.905 137.588 535.262 138.042 535.259 138.555C535.262 139.065 534.868 139.559 534.075 140.04L530.623 142.131L529.099 141.294L532.349 139.325C532.816 139.042 533.054 138.759 533.063 138.477C533.078 138.191 532.879 137.935 532.466 137.707C532.045 137.476 531.584 137.37 531.082 137.389C530.595 137.407 530.117 137.558 529.65 137.841L526.4 139.81L524.876 138.973L530.761 135.408L532.284 136.246L531.551 136.689C532.009 136.647 532.465 136.668 532.919 136.754C533.387 136.839 533.809 136.986 534.187 137.193ZM535.641 144.889L536.102 142.246L533.595 143.765L532.071 142.927L539.932 138.166L541.455 139.003L536.983 141.712L541.504 141.313L543.484 142.401L537.876 142.731L537.622 145.978L535.641 144.889Z" fill="#5CE1E6"/>
<path d="M486.947 98.6684C484.103 97.1056 480.501 96.0764 476.595 95.711C472.689 95.3455 468.655 95.6602 465.003 96.6153C461.351 97.5703 458.245 99.1228 456.078 101.077C453.91 103.03 452.78 105.297 452.828 107.591C452.876 109.885 454.101 112.102 456.349 113.963C458.596 115.824 461.765 117.244 465.454 118.045C469.143 118.845 473.186 118.99 477.074 118.46C480.961 117.931 484.517 116.751 487.292 115.07L480.104 111.119C478.716 111.96 476.938 112.549 474.995 112.814C473.051 113.079 471.029 113.007 469.185 112.606C467.34 112.206 465.756 111.496 464.632 110.566C463.508 109.635 462.896 108.526 462.872 107.38C462.847 106.233 463.413 105.099 464.496 104.122C465.58 103.146 467.133 102.369 468.959 101.892C470.785 101.414 472.802 101.257 474.755 101.44C476.708 101.622 478.509 102.137 479.931 102.918L486.947 98.6684Z" fill="white"/>
<path d="M486.947 98.6684C485.059 97.6308 482.826 96.8231 480.377 96.2916C477.928 95.7601 475.309 95.5151 472.671 95.5706C470.033 95.6262 467.427 95.9811 465.003 96.6153C462.578 97.2494 460.381 98.1503 458.539 99.2665L465.727 103.217C466.648 102.659 467.747 102.209 468.959 101.892C470.171 101.575 471.474 101.397 472.793 101.369C474.112 101.342 475.421 101.464 476.646 101.73C477.871 101.996 478.987 102.399 479.931 102.918L486.947 98.6684Z" fill="#5CE1E6"/>
<circle r="5.12657" transform="matrix(0.876357 0.481662 -0.85531 0.518117 472.915 107.168)" fill="#5CE1E6"/>
<path d="M477.408 109.637C477.984 109.289 478.438 108.879 478.744 108.433C479.05 107.987 479.203 107.512 479.193 107.036C479.183 106.56 479.01 106.092 478.686 105.659C478.361 105.226 477.89 104.836 477.3 104.512C476.71 104.188 476.012 103.935 475.247 103.769C474.482 103.603 473.663 103.527 472.839 103.544C472.015 103.561 471.2 103.672 470.443 103.87C469.685 104.069 468.998 104.35 468.423 104.699L472.915 107.168L477.408 109.637Z" fill="white"/>
<g opacity="0.9">
<rect opacity="0.75" x="-0.0052617" y="-0.249945" width="28.9101" height="28.9101" rx="14.4551" transform="matrix(-0.876357 -0.481662 0.85531 -0.518116 262.46 338.779)" stroke="url(#paint9_linear_33_463)" stroke-width="0.5"/>
<rect opacity="0.7" x="-0.0052617" y="-0.249945" width="28.9101" height="28.9101" rx="14.4551" transform="matrix(-0.876357 -0.481662 0.85531 -0.518116 246.9 330.227)" stroke="url(#paint10_linear_33_463)" stroke-width="0.5"/>
</g>
<g filter="url(#filter7_d_33_463)">
<path d="M400.998 50.5132L402.13 51.1353L399.92 52.4736L391.987 48.113L393.208 47.3731L400.01 51.1116L400.998 50.5132ZM392.101 52.8345C393.215 52.5958 394.178 52.6997 394.99 53.1463C395.382 53.3617 395.646 53.617 395.781 53.9122C395.916 54.2075 395.887 54.5228 395.693 54.8581C395.507 55.1974 395.138 55.5344 394.585 55.8689C394.04 56.1992 393.478 56.4264 392.9 56.5503C392.322 56.6826 391.774 56.7169 391.256 56.6533C390.739 56.5896 390.284 56.4501 389.892 56.2348C389.486 56.0115 389.229 55.7519 389.123 55.456C389.016 55.1684 389.046 54.878 389.212 54.5847C388.656 54.7454 388.087 54.8009 387.505 54.751C386.93 54.7051 386.411 54.5546 385.946 54.2994C385.475 54.0402 385.174 53.7401 385.045 53.3992C384.916 53.0582 384.963 52.7074 385.185 52.3466C385.406 51.9859 385.783 51.6447 386.314 51.323C386.845 51.0012 387.417 50.7677 388.031 50.6223C388.638 50.4811 389.239 50.4395 389.836 50.4973C390.432 50.5552 390.966 50.7137 391.438 50.9729C391.909 51.2321 392.199 51.5262 392.306 51.8551C392.414 52.1841 392.345 52.5106 392.101 52.8345ZM390.897 55.4497C391.304 55.673 391.74 55.7694 392.205 55.7389C392.671 55.7084 393.119 55.5624 393.551 55.3007C393.976 55.0433 394.204 54.7798 394.234 54.51C394.264 54.2402 394.072 53.9917 393.659 53.7644C393.296 53.565 392.871 53.4787 392.384 53.5055C391.897 53.5406 391.452 53.6804 391.048 53.9249C390.645 54.1694 390.428 54.4348 390.398 54.7212C390.368 55.0075 390.535 55.2503 390.897 55.4497ZM390.112 53.4105C390.58 53.1274 390.842 52.83 390.9 52.5182C390.958 52.2147 390.766 51.9414 390.324 51.6981C389.91 51.4708 389.431 51.3712 388.887 51.3992C388.349 51.4312 387.836 51.5952 387.348 51.8912C386.866 52.1829 386.618 52.4842 386.603 52.795C386.581 53.1101 386.773 53.3794 387.18 53.6027C387.615 53.8419 388.097 53.9394 388.627 53.8952C389.15 53.8552 389.645 53.6936 390.112 53.4105ZM387.421 57.7817C388.054 58.1783 388.328 58.6197 388.245 59.1059C388.155 59.5963 387.749 60.0603 387.027 60.4979C386.531 60.7981 386.012 61.0078 385.469 61.1269C384.927 61.2459 384.408 61.2755 383.912 61.2156C383.415 61.1556 382.971 61.018 382.58 60.8026C382.13 60.5554 381.862 60.2733 381.777 59.9563C381.691 59.6392 381.757 59.3522 381.974 59.095L381.93 59.0711C381.382 59.2524 380.817 59.3181 380.235 59.2683C379.66 59.2224 379.104 59.0519 378.567 58.7568C378.139 58.5216 377.854 58.2543 377.711 57.9551C377.569 57.6558 377.587 57.3387 377.767 57.0037C377.953 56.6726 378.309 56.3484 378.833 56.031C379.597 55.5677 380.427 55.2956 381.322 55.2147C382.217 55.142 383.059 55.3023 383.849 55.6956L382.681 56.4034C382.268 56.2092 381.807 56.1236 381.298 56.1468C380.797 56.1739 380.323 56.3226 379.877 56.5928C379.445 56.8545 379.232 57.1219 379.238 57.395C379.251 57.6721 379.45 57.9164 379.834 58.1277C380.342 58.4069 380.86 58.5078 381.389 58.4304C381.919 58.3613 382.509 58.1294 383.161 57.7348L383.437 57.5675L384.46 58.1297L384.173 58.3035C383.607 58.6549 383.269 58.9725 383.16 59.2564C383.044 59.5445 383.19 59.8002 383.596 60.0235C383.944 60.215 384.33 60.3 384.752 60.2787C385.182 60.2613 385.599 60.1304 386.003 59.8859C386.399 59.6457 386.602 59.4013 386.611 59.1527C386.628 58.908 386.505 58.6891 386.242 58.4959L387.421 57.7817ZM380.053 62.2455C380.685 62.6421 380.959 63.0835 380.876 63.5696C380.786 64.0601 380.38 64.5241 379.658 64.9616C379.162 65.2619 378.643 65.4716 378.101 65.5907C377.558 65.7097 377.039 65.7393 376.543 65.6793C376.047 65.6194 375.603 65.4818 375.211 65.2664C374.761 65.0192 374.493 64.7371 374.408 64.42C374.322 64.103 374.388 63.816 374.605 63.5588L374.561 63.5349C374.013 63.7162 373.448 63.7819 372.866 63.7321C372.291 63.6862 371.735 63.5157 371.198 63.2206C370.77 62.9854 370.485 62.7181 370.342 62.4188C370.2 62.1196 370.218 61.8025 370.398 61.4674C370.584 61.1364 370.94 60.8122 371.464 60.4948C372.228 60.0315 373.058 59.7594 373.953 59.6785C374.848 59.6058 375.69 59.7661 376.48 60.1594L375.312 60.8671C374.899 60.6729 374.438 60.5874 373.93 60.6105C373.428 60.6377 372.954 60.7863 372.508 61.0566C372.076 61.3182 371.863 61.5856 371.869 61.8588C371.882 62.1359 372.081 62.3802 372.465 62.5915C372.973 62.8707 373.492 62.9715 374.021 62.8942C374.55 62.8251 375.14 62.5932 375.792 62.1985L376.068 62.0313L377.091 62.5935L376.804 62.7672C376.238 63.1187 375.9 63.4363 375.791 63.7202C375.676 64.0083 375.821 64.264 376.227 64.4873C376.575 64.6787 376.961 64.7638 377.384 64.7425C377.813 64.7251 378.23 64.5942 378.634 64.3497C379.03 64.1095 379.233 63.8651 379.242 63.6165C379.259 63.3718 379.136 63.1529 378.874 62.9597L380.053 62.2455ZM364.935 72.5599L360.912 66.937L362.133 66.1971L365.994 71.7675L369.924 69.3868L370.98 69.967L365.86 73.0683L364.935 72.5599ZM362.822 73.6389L363.954 74.261L361.744 75.5993L353.81 71.2388L355.032 70.4988L361.834 74.2373L362.822 73.6389ZM353.016 78.7618C353.427 78.898 353.819 78.9498 354.191 78.9171C354.564 78.8845 354.934 78.7566 355.302 78.5335C355.862 78.1947 356.058 77.82 355.892 77.4094C355.732 77.0029 355.152 76.5162 354.151 75.9493C354.286 76.2363 354.263 76.5349 354.083 76.845C353.903 77.1552 353.608 77.4347 353.197 77.6835C352.73 77.9666 352.214 78.1576 351.65 78.2564C351.085 78.3635 350.508 78.3695 349.918 78.2742C349.321 78.1833 348.75 77.9883 348.206 77.6892C347.698 77.4101 347.344 77.1008 347.143 76.7614C346.935 76.4262 346.906 76.079 347.057 75.7198C347.214 75.3645 347.562 75.0239 348.1 74.6979C348.829 74.2561 349.566 73.9983 350.311 73.9247C351.055 73.8594 351.813 73.9407 352.585 74.1687C353.351 74.401 354.183 74.7644 355.083 75.2589C357.738 76.7184 358.152 78.0015 356.325 79.1082C355.617 79.5372 354.866 79.7662 354.07 79.7954C353.268 79.8289 352.544 79.7095 351.9 79.4374L353.016 78.7618ZM352.418 76.9484C352.85 76.6868 353.084 76.3899 353.12 76.0579C353.156 75.7342 352.924 75.4348 352.423 75.1596C351.923 74.8845 351.386 74.7488 350.812 74.7526C350.239 74.7647 349.701 74.923 349.198 75.2275C348.752 75.4978 348.543 75.7879 348.571 76.0978C348.592 76.412 348.838 76.6988 349.309 76.958C349.803 77.2291 350.322 77.3673 350.867 77.3723C351.413 77.3857 351.93 77.2444 352.418 76.9484ZM349.204 80.9326C349.836 81.3291 350.111 81.7705 350.028 82.2567C349.938 82.7472 349.531 83.2112 348.809 83.6487C348.313 83.949 347.794 84.1587 347.252 84.2777C346.709 84.3968 346.19 84.4264 345.694 84.3664C345.198 84.3065 344.754 84.1688 344.362 83.9535C343.912 83.7063 343.645 83.4241 343.559 83.1071C343.473 82.7901 343.539 82.503 343.756 82.2459L343.712 82.222C343.164 82.4033 342.599 82.469 342.017 82.4191C341.442 82.3733 340.887 82.2028 340.35 81.9077C339.922 81.6724 339.636 81.4052 339.494 81.1059C339.351 80.8067 339.37 80.4895 339.549 80.1545C339.736 79.8235 340.091 79.4993 340.615 79.1818C341.38 78.7186 342.209 78.4465 343.104 78.3655C343.999 78.2929 344.842 78.4532 345.632 78.8464L344.463 79.5542C344.05 79.36 343.589 79.2745 343.081 79.2976C342.579 79.3247 342.106 79.4734 341.659 79.7437C341.228 80.0053 341.014 80.2727 341.02 80.5459C341.033 80.823 341.232 81.0672 341.616 81.2786C342.124 81.5577 342.643 81.6586 343.172 81.5812C343.701 81.5121 344.291 81.2803 344.943 80.8856L345.219 80.7183L346.242 81.2806L345.955 81.4543C345.389 81.8058 345.051 82.1234 344.943 82.4072C344.827 82.6954 344.972 82.9511 345.378 83.1744C345.727 83.3658 346.112 83.4509 346.535 83.4295C346.965 83.4122 347.381 83.2813 347.785 83.0368C348.182 82.7966 348.384 82.5522 348.394 82.3035C348.41 82.0589 348.287 81.84 348.025 81.6468L349.204 80.9326ZM338.014 87.7112C338.646 88.1078 338.921 88.5492 338.838 89.0353C338.747 89.5258 338.341 89.9898 337.619 90.4273C337.123 90.7276 336.604 90.9373 336.062 91.0563C335.519 91.1754 335 91.205 334.504 91.145C334.008 91.0851 333.564 90.9475 333.172 90.7321C332.722 90.4849 332.454 90.2028 332.369 89.8857C332.283 89.5687 332.349 89.2816 332.566 89.0245L332.522 89.0006C331.974 89.1819 331.409 89.2476 330.827 89.1978C330.252 89.1519 329.696 88.9814 329.159 88.6863C328.731 88.451 328.446 88.1838 328.304 87.8845C328.161 87.5853 328.179 87.2681 328.359 86.9331C328.545 86.6021 328.901 86.2779 329.425 85.9605C330.19 85.4972 331.019 85.2251 331.914 85.1441C332.809 85.0715 333.651 85.2318 334.441 85.6251L333.273 86.3328C332.86 86.1386 332.399 86.0531 331.891 86.0762C331.389 86.1034 330.915 86.252 330.469 86.5223C330.037 86.7839 329.824 87.0513 329.83 87.3245C329.843 87.6016 330.042 87.8459 330.426 88.0572C330.934 88.3364 331.453 88.4372 331.982 88.3598C332.511 88.2907 333.101 88.0589 333.753 87.6642L334.029 87.4969L335.052 88.0592L334.765 88.2329C334.199 88.5844 333.861 88.902 333.753 89.1859C333.637 89.474 333.782 89.7297 334.188 89.953C334.536 90.1444 334.922 90.2295 335.345 90.2082C335.775 90.1908 336.191 90.0599 336.595 89.8154C336.991 89.5752 337.194 89.3308 337.203 89.0822C337.22 88.8375 337.097 88.6186 336.835 88.4254L338.014 87.7112ZM327.489 91.9743C328.602 91.7356 329.566 91.8395 330.378 92.2861C330.77 92.5015 331.034 92.7568 331.169 93.0521C331.304 93.3473 331.275 93.6626 331.081 93.9979C330.895 94.3372 330.525 94.6742 329.973 95.0087C329.428 95.339 328.866 95.5662 328.288 95.6901C327.71 95.8224 327.162 95.8567 326.644 95.7931C326.126 95.7294 325.672 95.5899 325.28 95.3746C324.873 95.1513 324.617 94.8917 324.51 94.5958C324.404 94.3082 324.434 94.0178 324.6 93.7245C324.044 93.8852 323.475 93.9407 322.893 93.8908C322.318 93.845 321.798 93.6944 321.334 93.4392C320.863 93.18 320.562 92.8799 320.433 92.539C320.304 92.198 320.35 91.8472 320.572 91.4865C320.794 91.1257 321.171 90.7845 321.702 90.4628C322.233 90.141 322.805 89.9075 323.419 89.7621C324.026 89.6209 324.627 89.5793 325.223 89.6371C325.82 89.695 326.354 89.8535 326.826 90.1127C327.297 90.3719 327.587 90.666 327.694 90.9949C327.801 91.3239 327.733 91.6504 327.489 91.9743ZM326.285 94.5895C326.691 94.8128 327.127 94.9092 327.593 94.8787C328.058 94.8482 328.507 94.7022 328.939 94.4405C329.364 94.1831 329.591 93.9196 329.622 93.6498C329.652 93.38 329.46 93.1315 329.047 92.9042C328.684 92.7048 328.259 92.6185 327.772 92.6453C327.285 92.6804 326.84 92.8202 326.436 93.0647C326.032 93.3092 325.816 93.5747 325.786 93.861C325.756 94.1473 325.922 94.3901 326.285 94.5895ZM325.5 92.5503C325.967 92.2672 326.23 91.9698 326.288 91.658C326.346 91.3546 326.154 91.0812 325.711 90.8379C325.298 90.6106 324.819 90.511 324.274 90.539C323.737 90.571 323.224 90.735 322.736 91.031C322.254 91.3227 322.006 91.624 321.991 91.9348C321.969 92.2499 322.161 92.5192 322.567 92.7425C323.003 92.9817 323.485 93.0792 324.015 93.035C324.538 92.995 325.033 92.8334 325.5 92.5503ZM317.46 95.7485C317.026 95.592 316.598 95.5327 316.176 95.5706C315.753 95.6085 315.344 95.7475 314.947 95.9877C314.445 96.2923 314.28 96.627 314.452 96.9918C314.625 97.3567 315.201 97.8083 316.18 98.3467C316.104 98.1081 316.152 97.8566 316.326 97.5921C316.5 97.3359 316.767 97.0984 317.128 96.8796C317.589 96.6008 318.101 96.3995 318.665 96.2759C319.236 96.1562 319.82 96.1336 320.417 96.2079C321.014 96.2906 321.584 96.4815 322.128 96.7806C322.927 97.2192 323.335 97.7054 323.353 98.2391C323.372 98.7811 322.981 99.2945 322.181 99.7792C321.218 100.363 320.204 100.595 319.14 100.477C318.077 100.367 316.867 99.9387 315.51 99.193C314.574 98.6786 313.886 98.2107 313.447 97.7893C313.001 97.3723 312.813 96.9663 312.884 96.5715C312.954 96.1767 313.322 95.7776 313.988 95.3744C314.746 94.9154 315.533 94.6732 316.35 94.6477C317.167 94.6223 317.909 94.764 318.575 95.0729L317.46 95.7485ZM317.961 97.5825C317.536 97.8399 317.337 98.1153 317.365 98.4087C317.393 98.7103 317.632 98.9848 318.082 99.232C318.582 99.5072 319.101 99.6412 319.639 99.634C320.177 99.6351 320.669 99.5005 321.115 99.2303C321.561 98.96 321.77 98.6658 321.742 98.3476C321.714 98.0376 321.468 97.7551 321.003 97.4998C320.561 97.2566 320.07 97.1303 319.532 97.1209C318.995 97.1198 318.471 97.2737 317.961 97.5825ZM310.026 99.7107C309.949 100.453 309.907 101.048 309.902 101.496C309.898 101.951 309.975 102.374 310.134 102.764C310.292 103.154 310.582 103.465 311.003 103.696C311.438 103.935 311.882 104.06 312.334 104.072C312.779 104.087 313.217 103.964 313.649 103.702C314.067 103.449 314.255 103.176 314.213 102.883C314.171 102.598 313.929 102.326 313.486 102.066L314.654 101.358C315.46 101.826 315.851 102.319 315.826 102.837C315.801 103.363 315.431 103.843 314.716 104.276C313.944 104.744 313.124 104.989 312.257 105.011C311.383 105.038 310.583 104.852 309.857 104.453C309.335 104.166 308.962 103.809 308.737 103.383C308.513 102.966 308.39 102.542 308.366 102.112C308.343 101.69 308.357 101.174 308.409 100.565L308.452 100.036L305.085 102.075L304.051 101.507L309.213 98.3801L310.116 98.8766L310.026 99.7107ZM304.956 108.692L306.088 109.314L303.879 110.652L295.945 106.292L297.166 105.552L303.968 109.29L304.956 108.692ZM297.289 110.18C298.545 110.87 299.319 111.533 299.612 112.168C299.905 112.812 299.545 113.441 298.533 114.054C297.52 114.668 296.453 114.903 295.331 114.761C294.21 114.628 293.021 114.216 291.766 113.526C290.496 112.828 289.711 112.155 289.411 111.507C289.11 110.868 289.467 110.241 290.479 109.628C291.492 109.014 292.563 108.777 293.691 108.914C294.82 109.06 296.02 109.482 297.289 110.18ZM292.956 112.805C293.543 113.128 294.079 113.378 294.564 113.554C295.041 113.734 295.519 113.826 296 113.828C296.488 113.834 296.955 113.702 297.401 113.432C297.847 113.162 298.053 112.886 298.018 112.605C297.991 112.329 297.813 112.055 297.484 111.784C297.149 111.518 296.687 111.224 296.1 110.901C295.49 110.566 294.943 110.306 294.459 110.122C293.975 109.937 293.492 109.844 293.012 109.842C292.524 109.843 292.057 109.98 291.611 110.25C291.165 110.52 290.956 110.794 290.983 111.07C291.003 111.352 291.185 111.627 291.527 111.897C291.87 112.168 292.346 112.47 292.956 112.805ZM286.37 114.041C286.292 114.784 286.251 115.379 286.246 115.826C286.242 116.281 286.319 116.704 286.477 117.094C286.636 117.484 286.926 117.795 287.347 118.026C287.782 118.265 288.226 118.391 288.678 118.402C289.123 118.417 289.561 118.294 289.993 118.033C290.411 117.779 290.599 117.506 290.557 117.213C290.515 116.928 290.273 116.656 289.83 116.396L290.998 115.689C291.804 116.156 292.194 116.649 292.169 117.167C292.145 117.693 291.775 118.173 291.059 118.606C290.288 119.074 289.468 119.319 288.601 119.341C287.726 119.368 286.926 119.182 286.201 118.783C285.679 118.496 285.305 118.139 285.081 117.714C284.857 117.296 284.734 116.872 284.71 116.442C284.687 116.02 284.701 115.504 284.753 114.895L284.796 114.366L281.428 116.405L280.395 115.837L285.557 112.71L286.46 113.207L286.37 114.041ZM281 120.136C282.114 119.897 283.077 120.001 283.889 120.447C284.281 120.663 284.545 120.918 284.68 121.213C284.815 121.509 284.786 121.824 284.592 122.159C284.406 122.499 284.036 122.835 283.484 123.17C282.939 123.5 282.377 123.727 281.799 123.851C281.221 123.984 280.673 124.018 280.155 123.954C279.637 123.891 279.183 123.751 278.791 123.536C278.385 123.313 278.128 123.053 278.021 122.757C277.915 122.47 277.945 122.179 278.111 121.886C277.555 122.047 276.986 122.102 276.404 122.052C275.829 122.006 275.31 121.856 274.845 121.601C274.374 121.341 274.073 121.041 273.944 120.7C273.815 120.359 273.862 120.009 274.083 119.648C274.305 119.287 274.682 118.946 275.213 118.624C275.744 118.302 276.316 118.069 276.93 117.923C277.537 117.782 278.138 117.741 278.735 117.798C279.331 117.856 279.865 118.015 280.337 118.274C280.808 118.533 281.098 118.827 281.205 119.156C281.312 119.485 281.244 119.812 281 120.136ZM279.796 122.751C280.203 122.974 280.638 123.071 281.104 123.04C281.569 123.01 282.018 122.863 282.45 122.602C282.875 122.344 283.103 122.081 283.133 121.811C283.163 121.541 282.971 121.293 282.558 121.066C282.195 120.866 281.77 120.78 281.283 120.807C280.796 120.842 280.351 120.982 279.947 121.226C279.543 121.471 279.327 121.736 279.297 122.022C279.267 122.309 279.434 122.551 279.796 122.751ZM279.011 120.712C279.478 120.429 279.741 120.131 279.799 119.819C279.857 119.516 279.665 119.242 279.222 118.999C278.809 118.772 278.33 118.672 277.785 118.7C277.248 118.732 276.735 118.896 276.247 119.192C275.765 119.484 275.517 119.785 275.502 120.096C275.48 120.411 275.672 120.68 276.078 120.904C276.514 121.143 276.996 121.241 277.526 121.196C278.049 121.156 278.544 120.995 279.011 120.712Z" fill="white"/>
</g>
<g filter="url(#filter8_d_33_463)">
<path d="M102.004 218.135L95.5876 220.294L94.6516 219.78L97.317 216.941L92.4678 218.58L91.532 218.074L95.0312 214.302L95.9091 214.785L92.9459 217.787L98.0857 215.981L99.0144 216.492L96.0797 219.485L101.118 217.648L102.004 218.135ZM102.535 222.951L100.424 221.791L99.0558 222.201L98.1924 221.726L104.928 219.733L105.885 220.26L102.763 224.238L101.893 223.76L102.535 222.951ZM102.962 222.425L104.429 220.589L101.315 221.52L102.962 222.425ZM107.053 226.596L107.304 224.189L105.102 225.523L104.274 225.069L109.196 222.088L110.023 222.542L107.778 223.902L111.982 223.619L113.019 224.189L108.364 224.478L108.134 227.19L107.053 226.596ZM113.813 230.369C113.475 230.183 113.227 229.981 113.069 229.764C112.916 229.543 112.869 229.326 112.926 229.112C112.984 228.899 113.155 228.706 113.438 228.534L114.323 229.021C114.13 229.16 114.04 229.312 114.053 229.478C114.071 229.646 114.218 229.806 114.493 229.957C114.779 230.114 115.067 230.196 115.359 230.204C115.656 230.209 115.91 230.147 116.122 230.018C116.288 229.918 116.371 229.809 116.374 229.69C116.381 229.574 116.338 229.457 116.244 229.341C116.156 229.227 116.014 229.078 115.819 228.894C115.575 228.662 115.392 228.463 115.269 228.297C115.155 228.131 115.118 227.952 115.157 227.761C115.196 227.57 115.369 227.381 115.676 227.195C115.959 227.024 116.279 226.914 116.637 226.865C116.995 226.816 117.361 226.829 117.735 226.904C118.11 226.979 118.468 227.11 118.812 227.299C119.3 227.568 119.579 227.86 119.648 228.176C119.726 228.492 119.575 228.785 119.193 229.055L118.279 228.552C118.444 228.436 118.51 228.295 118.478 228.13C118.446 227.965 118.299 227.811 118.038 227.667C117.801 227.537 117.548 227.467 117.28 227.456C117.013 227.445 116.768 227.506 116.546 227.641C116.395 227.732 116.316 227.833 116.308 227.944C116.311 228.054 116.356 228.167 116.444 228.281C116.533 228.395 116.67 228.541 116.855 228.719C117.099 228.957 117.281 229.16 117.399 229.329C117.522 229.5 117.562 229.683 117.518 229.877C117.484 230.071 117.311 230.262 116.999 230.451C116.749 230.602 116.443 230.707 116.081 230.764C115.723 230.824 115.343 230.823 114.94 230.759C114.547 230.696 114.171 230.566 113.813 230.369ZM123.047 229.701L119.91 231.601C119.537 231.827 119.355 232.051 119.365 232.275C119.379 232.501 119.565 232.712 119.923 232.909C120.286 233.108 120.661 233.205 121.048 233.2C121.44 233.197 121.823 233.083 122.196 232.857L125.333 230.957L126.16 231.411L123.037 233.303C122.636 233.546 122.206 233.703 121.749 233.773C121.291 233.843 120.844 233.838 120.407 233.756C119.971 233.674 119.571 233.533 119.208 233.334C118.845 233.134 118.582 232.911 118.419 232.663C118.261 232.418 118.234 232.163 118.339 231.899C118.443 231.634 118.696 231.381 119.097 231.138L122.22 229.246L123.047 229.701ZM127.184 237.66L126.356 237.206L127.543 233.611L123.868 235.838L123.041 235.383L127.969 232.398L128.796 232.852L127.617 236.442L131.285 234.22L132.112 234.675L127.184 237.66ZM133.041 239.718L130.93 238.557L129.561 238.967L128.698 238.492L135.433 236.5L136.391 237.026L133.269 241.005L132.398 240.526L133.041 239.718ZM133.467 239.191L134.935 237.355L131.82 238.286L133.467 239.191ZM137.399 243.275L138.207 241.444L137.575 241.097L135.607 242.29L134.78 241.835L139.701 238.854L141.442 239.811C141.829 240.024 142.09 240.243 142.224 240.469C142.362 240.698 142.386 240.916 142.295 241.122C142.208 241.331 142.028 241.518 141.754 241.684C141.433 241.879 141.044 242.003 140.586 242.057C140.138 242.11 139.668 242.057 139.177 241.896L138.386 243.817L137.399 243.275ZM138.22 240.707L139.134 241.209C139.444 241.379 139.751 241.461 140.057 241.455C140.368 241.451 140.651 241.372 140.906 241.218C141.16 241.063 141.281 240.901 141.268 240.73C141.26 240.556 141.098 240.383 140.784 240.21L139.87 239.707L138.22 240.707ZM145.838 242.227L140.917 245.208L140.09 244.753L145.011 241.772L145.838 242.227Z" fill="white"/>
</g>
<g filter="url(#filter9_d_33_463)">
<path d="M74.9414 226.746C75.618 226.336 76.258 226.079 76.8614 225.974C77.4687 225.867 78.0546 225.968 78.6189 226.278C79.1791 226.586 79.3814 226.918 79.2255 227.273C79.0735 227.626 78.6593 228.007 77.9826 228.417C77.2942 228.834 76.6463 229.096 76.039 229.204C75.4316 229.311 74.8478 229.21 74.2876 228.902C73.7232 228.592 73.519 228.259 73.6749 227.904C73.8308 227.549 74.2529 227.163 74.9414 226.746ZM77.4384 228.118C77.7807 227.911 78.0457 227.722 78.2333 227.553C78.429 227.383 78.527 227.214 78.5275 227.046C78.5319 226.881 78.3992 226.724 78.1291 226.575C77.855 226.425 77.5726 226.353 77.2819 226.362C76.9953 226.372 76.7078 226.437 76.4195 226.556C76.1391 226.675 75.8278 226.838 75.4855 227.045C75.1315 227.259 74.8566 227.451 74.661 227.621C74.4694 227.793 74.3713 227.962 74.3669 228.128C74.3664 228.296 74.5032 228.455 74.7773 228.606C75.0474 228.754 75.3257 228.823 75.6124 228.812C75.903 228.804 76.1905 228.739 76.4748 228.618C76.7632 228.499 77.0844 228.333 77.4384 228.118ZM82.2485 229.521C82.5965 229.208 82.5388 228.924 82.0752 228.669C81.7165 228.472 81.3127 228.407 80.8639 228.474C80.419 228.538 79.8898 228.759 79.2762 229.135C79.5735 229.062 79.886 229.05 80.2137 229.098C80.5494 229.146 80.8502 229.243 81.1163 229.39C81.5314 229.618 81.7361 229.876 81.7302 230.163C81.7283 230.453 81.5051 230.733 81.0606 231.002C80.7931 231.164 80.4987 231.28 80.1774 231.349C79.8602 231.42 79.5298 231.433 79.1862 231.39C78.8467 231.349 78.5238 231.244 78.2174 231.076C77.8023 230.848 77.5683 230.614 77.5154 230.376C77.4626 230.138 77.5492 229.897 77.7751 229.653C78.0011 229.409 78.3481 229.145 78.8163 228.862C80.26 227.987 81.4979 227.834 82.5297 228.401C82.9248 228.618 83.1309 228.852 83.1481 229.102C83.1653 229.352 83.0348 229.585 82.7564 229.8L82.2485 229.521ZM80.547 229.602C80.3737 229.507 80.175 229.438 79.9511 229.397C79.731 229.353 79.5018 229.348 79.2634 229.38C79.033 229.413 78.8175 229.49 78.6169 229.611C78.3179 229.792 78.1627 229.989 78.1512 230.201C78.1437 230.41 78.3052 230.606 78.6357 230.788C78.9178 230.943 79.2261 231.014 79.5605 231.003C79.9029 230.991 80.2197 230.897 80.5108 230.72C80.8177 230.535 80.977 230.345 80.9889 230.151C81.0047 229.956 80.8574 229.772 80.547 229.602ZM88.1035 230.073L79.885 233.138L79.3408 232.839L87.5533 229.771L88.1035 230.073ZM83.6381 233.544C84.5513 233.582 85.2809 233.604 85.8268 233.608C86.3767 233.61 86.89 233.581 87.3668 233.521C87.8516 233.46 88.2297 233.347 88.5012 233.183C88.7569 233.028 88.893 232.871 88.9096 232.712C88.9341 232.552 88.8053 232.395 88.5232 232.24C88.2491 232.09 87.9509 232.023 87.6285 232.042C87.3142 232.06 87.0113 232.15 86.7199 232.313L86.1878 232.02C86.6445 231.762 87.1219 231.631 87.6198 231.628C88.1178 231.624 88.5703 231.734 88.9774 231.958C89.3926 232.186 89.609 232.435 89.6266 232.704C89.6482 232.974 89.4623 233.229 89.0689 233.467C88.7424 233.665 88.323 233.803 87.8107 233.88C87.3063 233.958 86.8091 233.998 86.3192 234.001C85.8331 234.002 85.2372 233.989 84.5314 233.96L86.6113 235.103L86.1628 235.375L83.2546 233.776L83.6381 233.544ZM88.9291 234.434C89.6057 234.024 90.2457 233.767 90.8491 233.662C91.4564 233.555 92.0423 233.656 92.6066 233.966C93.1669 234.274 93.3691 234.606 93.2132 234.961C93.0612 235.314 92.647 235.695 91.9703 236.105C91.2819 236.522 90.634 236.784 90.0267 236.891C89.4193 236.999 88.8355 236.898 88.2753 236.59C87.7109 236.28 87.5067 235.947 87.6626 235.592C87.8185 235.237 88.2406 234.851 88.9291 234.434ZM91.4262 235.806C91.7684 235.599 92.0334 235.41 92.221 235.241C92.4167 235.071 92.5147 234.902 92.5152 234.734C92.5196 234.569 92.3869 234.412 92.1168 234.263C91.8427 234.112 91.5603 234.041 91.2697 234.05C90.983 234.06 90.6955 234.125 90.4072 234.244C90.1268 234.362 89.8155 234.525 89.4732 234.733C89.1192 234.947 88.8443 235.139 88.6487 235.309C88.4571 235.481 88.3591 235.65 88.3546 235.816C88.3541 235.984 88.4909 236.143 88.765 236.293C89.0351 236.442 89.3135 236.511 89.6001 236.5C89.8908 236.492 90.1782 236.427 90.4626 236.306C90.7509 236.187 91.0721 236.021 91.4262 235.806ZM90.9125 237.542C91.8256 237.58 92.5552 237.602 93.1011 237.606C93.651 237.608 94.1643 237.579 94.6411 237.519C95.1259 237.458 95.504 237.345 95.7755 237.181C96.0312 237.026 96.1673 236.869 96.1839 236.71C96.2084 236.551 96.0796 236.393 95.7975 236.238C95.5234 236.088 95.2252 236.022 94.9028 236.04C94.5885 236.058 94.2856 236.148 93.9942 236.311L93.4621 236.018C93.9188 235.76 94.3962 235.63 94.8941 235.626C95.3921 235.622 95.8446 235.732 96.2517 235.956C96.6669 236.184 96.8833 236.433 96.9009 236.702C96.9225 236.973 96.7366 237.227 96.3432 237.466C96.0167 237.663 95.5973 237.801 95.085 237.878C94.5806 237.956 94.0834 237.996 93.5935 238C93.1074 238.001 92.5115 237.987 91.8057 237.958L93.8856 239.101L93.4371 239.373L90.5289 237.774L90.9125 237.542ZM94.843 239.102L95.2501 238.856L100.24 238.285L100.899 238.647L98.0904 240.348L98.695 240.681L98.2288 240.963L97.6242 240.631L96.6742 241.206L96.13 240.907L97.0801 240.332L94.843 239.102ZM99.8187 238.701L95.944 239.169L97.5704 240.063L99.8187 238.701Z" fill="white" fill-opacity="0.7" shape-rendering="crispEdges"/>
</g>
<path d="M265.337 232.54C265.587 232.388 265.997 232.38 266.253 232.52L273.975 236.765C274.231 236.905 274.236 237.142 273.986 237.294L270.201 239.586C269.951 239.738 269.541 239.746 269.285 239.606L261.563 235.361C261.307 235.221 261.302 234.984 261.552 234.832L265.337 232.54Z" fill="white"/>
<path d="M234.576 224.303C234.826 224.151 235.236 224.143 235.492 224.283L243.214 228.528C243.47 228.669 243.475 228.905 243.225 229.057L239.44 231.35C239.191 231.501 238.78 231.51 238.524 231.369L230.802 227.124C230.546 226.984 230.541 226.747 230.791 226.596L234.576 224.303Z" fill="white"/>
<path d="M242.08 219.757C242.33 219.606 242.74 219.597 242.996 219.738L250.718 223.982C250.975 224.123 250.979 224.36 250.73 224.511L246.945 226.804C246.695 226.955 246.285 226.964 246.029 226.823L238.306 222.579C238.05 222.438 238.045 222.201 238.295 222.05L242.08 219.757Z" fill="white"/>
<path d="M251.738 227.233C251.987 227.081 252.397 227.073 252.653 227.213L260.568 231.564C260.824 231.704 260.829 231.941 260.579 232.092L253.042 236.658C252.792 236.809 252.382 236.818 252.126 236.677L244.212 232.327C243.956 232.187 243.951 231.95 244.201 231.798L251.738 227.233Z" fill="white"/>
<path d="M257.836 237.087C258.086 236.936 258.496 236.927 258.752 237.068L266.475 241.312C266.731 241.453 266.736 241.69 266.486 241.841L262.701 244.134C262.451 244.285 262.041 244.294 261.785 244.153L254.062 239.909C253.806 239.768 253.801 239.531 254.051 239.38L257.836 237.087Z" fill="white"/>
<path d="M255.437 223.325C256.233 223.763 256.249 224.499 255.472 224.97L255.455 224.98C255.205 225.131 255.21 225.368 255.466 225.508L257.519 226.636C257.775 226.777 258.185 226.768 258.434 226.617L261.265 224.902C261.638 224.676 262.148 224.543 262.682 224.532V224.532C262.99 224.525 263.14 224.307 262.919 224.186L248.623 216.329C248.367 216.188 247.957 216.197 247.707 216.348L245.798 217.505C245.549 217.656 245.554 217.893 245.81 218.033L255.437 223.325Z" fill="white"/>
<path d="M263.834 226.834C263.662 226.838 263.498 226.881 263.378 226.954L261.318 228.202C261.068 228.353 261.073 228.59 261.329 228.731L263.381 229.858C263.637 229.999 264.047 229.991 264.297 229.839L264.314 229.829C265.091 229.358 266.366 229.332 267.162 229.769L276.79 235.061C277.046 235.201 277.456 235.193 277.706 235.041L279.615 233.885C279.865 233.734 279.86 233.497 279.604 233.356L267.786 226.861C267.663 226.793 267.497 226.757 267.326 226.761L263.834 226.834Z" fill="white"/>
<path d="M249.343 240.566C248.547 240.128 248.531 239.392 249.308 238.921L249.325 238.911C249.575 238.76 249.57 238.523 249.314 238.383L247.262 237.255C247.006 237.114 246.596 237.123 246.346 237.274L243.515 238.989C243.142 239.215 242.632 239.348 242.098 239.359V239.359C241.79 239.366 241.64 239.584 241.861 239.705L256.157 247.562C256.413 247.703 256.823 247.694 257.073 247.543L258.982 246.386C259.232 246.235 259.227 245.998 258.971 245.858L249.343 240.566Z" fill="white"/>
<path d="M240.944 237.055C241.116 237.052 241.28 237.009 241.4 236.936L243.46 235.688C243.71 235.537 243.705 235.3 243.449 235.159L241.397 234.031C241.141 233.891 240.731 233.899 240.481 234.051L240.464 234.061C239.687 234.531 238.412 234.558 237.616 234.121L227.988 228.829C227.732 228.688 227.322 228.697 227.072 228.848L225.163 230.005C224.913 230.156 224.918 230.393 225.174 230.534L236.992 237.029C237.115 237.097 237.28 237.133 237.452 237.129L240.944 237.055Z" fill="white"/>
<rect x="0.00556636" y="0.264415" width="36.417" height="27.7701" rx="0.793421" transform="matrix(0.876357 0.481662 -0.85531 0.518117 248.378 215.762)" stroke="white" stroke-width="0.528947"/>
<g style="mix-blend-mode:overlay">
<path d="M232.137 246.012C230.353 245.812 226.671 244.884 226.223 242.768M229.803 249.874C227.033 249.524 221.123 247.918 219.638 244.298M228.067 253.481C224.378 252.976 216.348 250.699 213.744 245.624M225.566 257.017C221.074 256.501 211.217 253.822 207.731 247.235" stroke="white" stroke-width="1.37985" stroke-linecap="round" stroke-linejoin="round"/>
</g>
<path fill-rule="evenodd" clip-rule="evenodd" d="M524.101 185.967C526.502 189.169 528.473 192.462 530.008 195.818L492.68 218.429L454.038 189.51C451.171 187.934 448.023 186.52 444.632 185.293C434.443 181.607 422.516 179.776 410.36 180.032C398.204 180.288 386.365 182.619 376.34 186.731C366.315 190.843 358.554 196.551 354.038 203.132C349.523 209.714 348.456 216.875 350.972 223.708C353.489 230.542 359.476 236.741 368.175 241.523L341.502 257.68L289.989 229.368C286.094 216.474 288.495 203.102 296.97 190.748C306 177.585 321.522 166.169 341.573 157.945C361.623 149.721 385.301 145.059 409.613 144.547C433.925 144.035 457.778 147.697 478.157 155.07C487.073 158.295 495.148 162.168 502.214 166.573C506.399 169.183 510.23 171.979 513.671 174.939C516.04 176.976 518.225 179.09 520.213 181.275C520.91 182.04 521.583 182.814 522.231 183.596C522.879 184.378 523.502 185.169 524.101 185.967ZM455.095 239.693L456.397 240.409L474.928 229.183L468.444 227.503C468.356 227.636 468.266 227.768 468.176 227.901C465.192 232.25 460.76 236.261 455.095 239.693ZM384.273 231.771C369.09 223.425 368.794 209.383 383.613 200.406C398.432 191.429 422.754 190.917 437.938 199.263C453.121 207.608 453.417 221.65 438.598 230.627C423.779 239.604 399.457 240.116 384.273 231.771Z" fill="url(#paint11_linear_33_463)"/>
</g>
<defs>
<filter id="filter0_b_33_463" x="77.9775" y="158.564" width="590.531" height="352.393" filterUnits="userSpaceOnUse" color-interpolation-filters="sRGB">
<feFlood flood-opacity="0" result="BackgroundImageFix"/>
<feGaussianBlur in="BackgroundImage" stdDeviation="4.5"/>
<feComposite in2="SourceAlpha" operator="in" result="effect1_backgroundBlur_33_463"/>
<feBlend mode="normal" in="SourceGraphic" in2="effect1_backgroundBlur_33_463" result="shape"/>
</filter>
<filter id="filter1_d_33_463" x="6.18091" y="38.027" width="719.137" height="478.211" filterUnits="userSpaceOnUse" color-interpolation-filters="sRGB">
<feFlood flood-opacity="0" result="BackgroundImageFix"/>
<feColorMatrix in="SourceAlpha" type="matrix" values="0 0 0 0 0 0 0 0 0 0 0 0 0 0 0 0 0 0 127 0" result="hardAlpha"/>
<feOffset dy="9"/>
<feGaussianBlur stdDeviation="35"/>
<feComposite in2="hardAlpha" operator="out"/>
<feColorMatrix type="matrix" values="0 0 0 0 0 0 0 0 0 0 0 0 0 0 0 0 0 0 0.25 0"/>
<feBlend mode="normal" in2="BackgroundImageFix" result="effect1_dropShadow_33_463"/>
<feBlend mode="normal" in="SourceGraphic" in2="effect1_dropShadow_33_463" result="shape"/>
</filter>
<filter id="filter2_d_33_463" x="128.531" y="295.175" width="57.8418" height="32.9743" filterUnits="userSpaceOnUse" color-interpolation-filters="sRGB">
<feFlood flood-opacity="0" result="BackgroundImageFix"/>
<feColorMatrix in="SourceAlpha" type="matrix" values="0 0 0 0 0 0 0 0 0 0 0 0 0 0 0 0 0 0 127 0" result="hardAlpha"/>
<feOffset dy="1"/>
<feGaussianBlur stdDeviation="0.5"/>
<feComposite in2="hardAlpha" operator="out"/>
<feColorMatrix type="matrix" values="0 0 0 0 0 0 0 0 0 0 0 0 0 0 0 0 0 0 0.15 0"/>
<feBlend mode="normal" in2="BackgroundImageFix" result="effect1_dropShadow_33_463"/>
<feBlend mode="normal" in="SourceGraphic" in2="effect1_dropShadow_33_463" result="shape"/>
</filter>
<filter id="filter3_d_33_463" x="110.232" y="305.609" width="33.0767" height="19.4488" filterUnits="userSpaceOnUse" color-interpolation-filters="sRGB">
<feFlood flood-opacity="0" result="BackgroundImageFix"/>
<feColorMatrix in="SourceAlpha" type="matrix" values="0 0 0 0 0 0 0 0 0 0 0 0 0 0 0 0 0 0 127 0" result="hardAlpha"/>
<feOffset dy="1"/>
<feGaussianBlur stdDeviation="0.5"/>
<feComposite in2="hardAlpha" operator="out"/>
<feColorMatrix type="matrix" values="0 0 0 0 0 0 0 0 0 0 0 0 0 0 0 0 0 0 0.15 0"/>
<feBlend mode="normal" in2="BackgroundImageFix" result="effect1_dropShadow_33_463"/>
<feBlend mode="normal" in="SourceGraphic" in2="effect1_dropShadow_33_463" result="shape"/>
</filter>
<filter id="filter4_d_33_463" x="0.709473" y="0.115891" width="659.137" height="418.211" filterUnits="userSpaceOnUse" color-interpolation-filters="sRGB">
<feFlood flood-opacity="0" result="BackgroundImageFix"/>
<feColorMatrix in="SourceAlpha" type="matrix" values="0 0 0 0 0 0 0 0 0 0 0 0 0 0 0 0 0 0 127 0" result="hardAlpha"/>
<feOffset dx="4" dy="22"/>
<feGaussianBlur stdDeviation="20"/>
<feComposite in2="hardAlpha" operator="out"/>
<feColorMatrix type="matrix" values="0 0 0 0 0 0 0 0 0 0 0 0 0 0 0 0 0 0 0.25 0"/>
<feBlend mode="normal" in2="BackgroundImageFix" result="effect1_dropShadow_33_463"/>
<feBlend mode="normal" in="SourceGraphic" in2="effect1_dropShadow_33_463" result="shape"/>
</filter>
<filter id="filter5_b_33_463" x="29.7095" y="11.1159" width="593.137" height="352.211" filterUnits="userSpaceOnUse" color-interpolation-filters="sRGB">
<feFlood flood-opacity="0" result="BackgroundImageFix"/>
<feGaussianBlur in="BackgroundImage" stdDeviation="3.5"/>
<feComposite in2="SourceAlpha" operator="in" result="effect1_backgroundBlur_33_463"/>
<feBlend mode="normal" in="SourceGraphic" in2="effect1_backgroundBlur_33_463" result="shape"/>
</filter>
<filter id="filter6_b_33_463" x="29.71" y="146.263" width="370.37" height="217.064" filterUnits="userSpaceOnUse" color-interpolation-filters="sRGB">
<feFlood flood-opacity="0" result="BackgroundImageFix"/>
<feGaussianBlur in="BackgroundImage" stdDeviation="3.5"/>
<feComposite in2="SourceAlpha" operator="in" result="effect1_backgroundBlur_33_463"/>
<feBlend mode="normal" in="SourceGraphic" in2="effect1_backgroundBlur_33_463" result="shape"/>
</filter>
<filter id="filter7_d_33_463" x="271.933" y="46.667" width="130.922" height="79.2573" filterUnits="userSpaceOnUse" color-interpolation-filters="sRGB">
<feFlood flood-opacity="0" result="BackgroundImageFix"/>
<feColorMatrix in="SourceAlpha" type="matrix" values="0 0 0 0 0 0 0 0 0 0 0 0 0 0 0 0 0 0 127 0" result="hardAlpha"/>
<feOffset dy="0.528947"/>
<feGaussianBlur stdDeviation="0.264474"/>
<feComposite in2="hardAlpha" operator="out"/>
<feColorMatrix type="matrix" values="0 0 0 0 0 0 0 0 0 0 0 0 0 0 0 0 0 0 0.2 0"/>
<feBlend mode="normal" in2="BackgroundImageFix" result="effect1_dropShadow_33_463"/>
<feBlend mode="normal" in="SourceGraphic" in2="effect1_dropShadow_33_463" result="shape"/>
</filter>
<filter id="filter8_d_33_463" x="89.0601" y="214.264" width="57.8418" height="32.9743" filterUnits="userSpaceOnUse" color-interpolation-filters="sRGB">
<feFlood flood-opacity="0" result="BackgroundImageFix"/>
<feColorMatrix in="SourceAlpha" type="matrix" values="0 0 0 0 0 0 0 0 0 0 0 0 0 0 0 0 0 0 127 0" result="hardAlpha"/>
<feOffset dy="1"/>
<feGaussianBlur stdDeviation="0.5"/>
<feComposite in2="hardAlpha" operator="out"/>
<feColorMatrix type="matrix" values="0 0 0 0 0 0 0 0 0 0 0 0 0 0 0 0 0 0 0.15 0"/>
<feBlend mode="normal" in2="BackgroundImageFix" result="effect1_dropShadow_33_463"/>
<feBlend mode="normal" in="SourceGraphic" in2="effect1_dropShadow_33_463" result="shape"/>
</filter>
<filter id="filter9_d_33_463" x="70.7607" y="224.698" width="33.0767" height="19.4488" filterUnits="userSpaceOnUse" color-interpolation-filters="sRGB">
<feFlood flood-opacity="0" result="BackgroundImageFix"/>
<feColorMatrix in="SourceAlpha" type="matrix" values="0 0 0 0 0 0 0 0 0 0 0 0 0 0 0 0 0 0 127 0" result="hardAlpha"/>
<feOffset dy="1"/>
<feGaussianBlur stdDeviation="0.5"/>
<feComposite in2="hardAlpha" operator="out"/>
<feColorMatrix type="matrix" values="0 0 0 0 0 0 0 0 0 0 0 0 0 0 0 0 0 0 0.15 0"/>
<feBlend mode="normal" in2="BackgroundImageFix" result="effect1_dropShadow_33_463"/>
<feBlend mode="normal" in="SourceGraphic" in2="effect1_dropShadow_33_463" result="shape"/>
</filter>
<linearGradient id="paint0_linear_33_463" x1="-83.1621" y1="-294.315" x2="117.367" y2="439.658" gradientUnits="userSpaceOnUse">
<stop stop-color="white" stop-opacity="0.7"/>
<stop offset="0.667914" stop-color="#F9F9F9" stop-opacity="0.175336"/>
<stop offset="1" stop-color="#F9F9F9" stop-opacity="0.1"/>
<stop offset="1" stop-color="white" stop-opacity="0.2"/>
</linearGradient>
<linearGradient id="paint1_linear_33_463" x1="-5.20145" y1="-1.37381e-06" x2="260.073" y2="422.061" gradientUnits="userSpaceOnUse">
<stop stop-color="white"/>
<stop offset="1" stop-color="white" stop-opacity="0.1"/>
</linearGradient>
<linearGradient id="paint2_linear_33_463" x1="0" y1="0" x2="264.531" y2="422.43" gradientUnits="userSpaceOnUse">
<stop stop-color="white" stop-opacity="0.4"/>
<stop offset="1" stop-color="white" stop-opacity="0.1"/>
</linearGradient>
<linearGradient id="paint3_linear_33_463" x1="-1.80156e-06" y1="14.1182" x2="248.927" y2="422.061" gradientUnits="userSpaceOnUse">
<stop stop-color="white"/>
<stop offset="1" stop-color="white" stop-opacity="0.1"/>
</linearGradient>
<linearGradient id="paint4_linear_33_463" x1="14.7051" y1="0" x2="14.7051" y2="29.4101" gradientUnits="userSpaceOnUse">
<stop stop-color="white"/>
<stop offset="0.479167" stop-opacity="0.5"/>
<stop offset="0.9375" stop-color="white"/>
</linearGradient>
<linearGradient id="paint5_linear_33_463" x1="14.7051" y1="0" x2="14.7051" y2="29.4101" gradientUnits="userSpaceOnUse">
<stop stop-color="white"/>
<stop offset="0.479167" stop-opacity="0.5"/>
<stop offset="0.9375" stop-color="white"/>
</linearGradient>
<linearGradient id="paint6_linear_33_463" x1="0" y1="0" x2="264.531" y2="422.43" gradientUnits="userSpaceOnUse">
<stop stop-color="white" stop-opacity="0.4"/>
<stop offset="1" stop-color="white" stop-opacity="0.1"/>
</linearGradient>
<linearGradient id="paint7_linear_33_463" x1="-1.80156e-06" y1="14.1182" x2="248.927" y2="422.061" gradientUnits="userSpaceOnUse">
<stop stop-color="white"/>
<stop offset="1" stop-color="white" stop-opacity="0.1"/>
</linearGradient>
<linearGradient id="paint8_linear_33_463" x1="124.243" y1="-113.342" x2="382.406" y2="388.599" gradientUnits="userSpaceOnUse">
<stop stop-color="#5AE5EA"/>
<stop offset="0.29487" stop-color="#5AE5EA" stop-opacity="0"/>
<stop offset="1" stop-color="#5AE5EA"/>
</linearGradient>
<linearGradient id="paint9_linear_33_463" x1="14.7051" y1="0" x2="14.7051" y2="29.4101" gradientUnits="userSpaceOnUse">
<stop stop-color="white"/>
<stop offset="0.479167" stop-opacity="0.5"/>
<stop offset="0.9375" stop-color="white"/>
</linearGradient>
<linearGradient id="paint10_linear_33_463" x1="14.7051" y1="0" x2="14.7051" y2="29.4101" gradientUnits="userSpaceOnUse">
<stop stop-color="white"/>
<stop offset="0.479167" stop-opacity="0.5"/>
<stop offset="0.9375" stop-color="white"/>
</linearGradient>
<linearGradient id="paint11_linear_33_463" x1="440.8" y1="88.7429" x2="441.345" y2="247.946" gradientUnits="userSpaceOnUse">
<stop stop-color="white"/>
<stop offset="1" stop-color="white" stop-opacity="0"/>
</linearGradient>
</defs>
</svg>
