<svg width="140" height="140" viewBox="0 0 140 140" fill="none" xmlns="http://www.w3.org/2000/svg">
<path fill-rule="evenodd" clip-rule="evenodd" d="M70 138C107.555 138 138 107.555 138 70C138 32.4446 107.555 2 70 2C32.4446 2 2 32.4446 2 70C2 107.555 32.4446 138 70 138ZM70 140C108.66 140 140 108.66 140 70C140 31.3401 108.66 0 70 0C31.3401 0 0 31.3401 0 70C0 108.66 31.3401 140 70 140Z" fill="url(#paint0_linear_31_394)"/>
<path d="M45.904 57.2567C45.58 56.6327 45.13 56.1647 44.554 55.8527C43.978 55.5287 43.312 55.3667 42.556 55.3667C41.728 55.3667 40.99 55.5527 40.342 55.9247C39.694 56.2967 39.184 56.8247 38.812 57.5087C38.452 58.1927 38.272 58.9847 38.272 59.8847C38.272 60.7847 38.452 61.5827 38.812 62.2787C39.184 62.9627 39.694 63.4907 40.342 63.8627C40.99 64.2347 41.728 64.4207 42.556 64.4207C43.672 64.4207 44.578 64.1087 45.274 63.4847C45.97 62.8607 46.396 62.0147 46.552 60.9467H41.854V59.3087H48.748V60.9107C48.616 61.8827 48.268 62.7767 47.704 63.5927C47.152 64.4087 46.426 65.0627 45.526 65.5547C44.638 66.0347 43.648 66.2747 42.556 66.2747C41.38 66.2747 40.306 66.0047 39.334 65.4647C38.362 64.9127 37.588 64.1507 37.012 63.1787C36.448 62.2067 36.166 61.1087 36.166 59.8847C36.166 58.6607 36.448 57.5627 37.012 56.5907C37.588 55.6187 38.362 54.8627 39.334 54.3227C40.318 53.7707 41.392 53.4947 42.556 53.4947C43.888 53.4947 45.07 53.8247 46.102 54.4847C47.146 55.1327 47.902 56.0567 48.37 57.2567H45.904ZM59.8619 60.9647C59.8619 61.3367 59.8379 61.6727 59.7899 61.9727H52.2119C52.2719 62.7647 52.5659 63.4007 53.0939 63.8807C53.6219 64.3607 54.2699 64.6007 55.0379 64.6007C56.1419 64.6007 56.9219 64.1387 57.3779 63.2147H59.5919C59.2919 64.1267 58.7459 64.8767 57.9539 65.4647C57.1739 66.0407 56.2019 66.3287 55.0379 66.3287C54.0899 66.3287 53.2379 66.1187 52.4819 65.6987C51.7379 65.2667 51.1499 64.6667 50.7179 63.8987C50.2979 63.1187 50.0879 62.2187 50.0879 61.1987C50.0879 60.1787 50.2919 59.2847 50.6999 58.5167C51.1199 57.7367 51.7019 57.1367 52.4459 56.7167C53.2019 56.2967 54.0659 56.0867 55.0379 56.0867C55.9739 56.0867 56.8079 56.2907 57.5399 56.6987C58.2719 57.1067 58.8419 57.6827 59.2499 58.4267C59.6579 59.1587 59.8619 60.0047 59.8619 60.9647ZM57.7199 60.3167C57.7079 59.5607 57.4379 58.9547 56.9099 58.4987C56.3819 58.0427 55.7279 57.8147 54.9479 57.8147C54.2399 57.8147 53.6339 58.0427 53.1299 58.4987C52.6259 58.9427 52.3259 59.5487 52.2299 60.3167H57.7199ZM64.2753 57.9227V63.4127C64.2753 63.7847 64.3593 64.0547 64.5273 64.2227C64.7073 64.3787 65.0073 64.4567 65.4273 64.4567H66.6873V66.1667H65.0673C64.1433 66.1667 63.4353 65.9507 62.9433 65.5187C62.4513 65.0867 62.2053 64.3847 62.2053 63.4127V57.9227H61.0353V56.2487H62.2053V53.7827H64.2753V56.2487H66.6873V57.9227H64.2753ZM40.972 89.2927C40.132 89.2927 39.376 89.1487 38.704 88.8607C38.032 88.5607 37.504 88.1407 37.12 87.6007C36.736 87.0607 36.544 86.4307 36.544 85.7107H38.74C38.788 86.2507 38.998 86.6947 39.37 87.0427C39.754 87.3907 40.288 87.5647 40.972 87.5647C41.68 87.5647 42.232 87.3967 42.628 87.0607C43.024 86.7127 43.222 86.2687 43.222 85.7287C43.222 85.3087 43.096 84.9667 42.844 84.7027C42.604 84.4387 42.298 84.2347 41.926 84.0907C41.566 83.9467 41.062 83.7907 40.414 83.6227C39.598 83.4067 38.932 83.1907 38.416 82.9747C37.912 82.7467 37.48 82.3987 37.12 81.9307C36.76 81.4627 36.58 80.8387 36.58 80.0587C36.58 79.3387 36.76 78.7087 37.12 78.1687C37.48 77.6287 37.984 77.2147 38.632 76.9267C39.28 76.6387 40.03 76.4947 40.882 76.4947C42.094 76.4947 43.084 76.8007 43.852 77.4127C44.632 78.0127 45.064 78.8407 45.148 79.8967H42.88C42.844 79.4407 42.628 79.0507 42.232 78.7267C41.836 78.4027 41.314 78.2407 40.666 78.2407C40.078 78.2407 39.598 78.3907 39.226 78.6907C38.854 78.9907 38.668 79.4227 38.668 79.9867C38.668 80.3707 38.782 80.6887 39.01 80.9407C39.25 81.1807 39.55 81.3727 39.91 81.5167C40.27 81.6607 40.762 81.8167 41.386 81.9847C42.214 82.2127 42.886 82.4407 43.402 82.6687C43.93 82.8967 44.374 83.2507 44.734 83.7307C45.106 84.1987 45.292 84.8287 45.292 85.6207C45.292 86.2567 45.118 86.8567 44.77 87.4207C44.434 87.9847 43.936 88.4407 43.276 88.7887C42.628 89.1247 41.86 89.2927 40.972 89.2927ZM50.1073 80.9227V86.4127C50.1073 86.7847 50.1913 87.0547 50.3593 87.2227C50.5393 87.3787 50.8393 87.4567 51.2593 87.4567H52.5193V89.1667H50.8993C49.9753 89.1667 49.2673 88.9507 48.7753 88.5187C48.2833 88.0867 48.0373 87.3847 48.0373 86.4127V80.9227H46.8673V79.2487H48.0373V76.7827H50.1073V79.2487H52.5193V80.9227H50.1073ZM53.7265 84.1627C53.7265 83.1667 53.9305 82.2847 54.3385 81.5167C54.7585 80.7487 55.3225 80.1547 56.0305 79.7347C56.7505 79.3027 57.5425 79.0867 58.4065 79.0867C59.1865 79.0867 59.8645 79.2427 60.4405 79.5547C61.0285 79.8547 61.4965 80.2327 61.8445 80.6887V79.2487H63.9145V89.1667H61.8445V87.6907C61.4965 88.1587 61.0225 88.5487 60.4225 88.8607C59.8225 89.1727 59.1385 89.3287 58.3705 89.3287C57.5185 89.3287 56.7385 89.1127 56.0305 88.6807C55.3225 88.2367 54.7585 87.6247 54.3385 86.8447C53.9305 86.0527 53.7265 85.1587 53.7265 84.1627ZM61.8445 84.1987C61.8445 83.5147 61.7005 82.9207 61.4125 82.4167C61.1365 81.9127 60.7705 81.5287 60.3145 81.2647C59.8585 81.0007 59.3665 80.8687 58.8385 80.8687C58.3105 80.8687 57.8185 81.0007 57.3625 81.2647C56.9065 81.5167 56.5345 81.8947 56.2465 82.3987C55.9705 82.8907 55.8325 83.4787 55.8325 84.1627C55.8325 84.8467 55.9705 85.4467 56.2465 85.9627C56.5345 86.4787 56.9065 86.8747 57.3625 87.1507C57.8305 87.4147 58.3225 87.5467 58.8385 87.5467C59.3665 87.5467 59.8585 87.4147 60.3145 87.1507C60.7705 86.8867 61.1365 86.5027 61.4125 85.9987C61.7005 85.4827 61.8445 84.8827 61.8445 84.1987ZM68.6618 80.6887C68.9618 80.1847 69.3578 79.7947 69.8498 79.5187C70.3538 79.2307 70.9478 79.0867 71.6318 79.0867V81.2107H71.1098C70.3058 81.2107 69.6938 81.4147 69.2738 81.8227C68.8658 82.2307 68.6618 82.9387 68.6618 83.9467V89.1667H66.6098V79.2487H68.6618V80.6887ZM75.912 80.9227V86.4127C75.912 86.7847 75.996 87.0547 76.164 87.2227C76.344 87.3787 76.644 87.4567 77.064 87.4567H78.324V89.1667H76.704C75.78 89.1667 75.072 88.9507 74.58 88.5187C74.088 88.0867 73.842 87.3847 73.842 86.4127V80.9227H72.672V79.2487H73.842V76.7827H75.912V79.2487H78.324V80.9227H75.912ZM89.3052 83.9647C89.3052 84.3367 89.2812 84.6727 89.2332 84.9727H81.6552C81.7152 85.7647 82.0092 86.4007 82.5372 86.8807C83.0652 87.3607 83.7132 87.6007 84.4812 87.6007C85.5852 87.6007 86.3652 87.1387 86.8212 86.2147H89.0352C88.7352 87.1267 88.1892 87.8767 87.3972 88.4647C86.6172 89.0407 85.6452 89.3287 84.4812 89.3287C83.5332 89.3287 82.6812 89.1187 81.9252 88.6987C81.1812 88.2667 80.5932 87.6667 80.1612 86.8987C79.7412 86.1187 79.5312 85.2187 79.5312 84.1987C79.5312 83.1787 79.7352 82.2847 80.1432 81.5167C80.5632 80.7367 81.1452 80.1367 81.8892 79.7167C82.6452 79.2967 83.5092 79.0867 84.4812 79.0867C85.4172 79.0867 86.2512 79.2907 86.9832 79.6987C87.7152 80.1067 88.2852 80.6827 88.6932 81.4267C89.1012 82.1587 89.3052 83.0047 89.3052 83.9647ZM87.1632 83.3167C87.1512 82.5607 86.8812 81.9547 86.3532 81.4987C85.8252 81.0427 85.1712 80.8147 84.3912 80.8147C83.6832 80.8147 83.0772 81.0427 82.5732 81.4987C82.0692 81.9427 81.7692 82.5487 81.6732 83.3167H87.1632ZM90.6406 84.1627C90.6406 83.1667 90.8446 82.2847 91.2526 81.5167C91.6726 80.7487 92.2366 80.1547 92.9446 79.7347C93.6646 79.3027 94.4626 79.0867 95.3386 79.0867C95.9866 79.0867 96.6226 79.2307 97.2466 79.5187C97.8826 79.7947 98.3866 80.1667 98.7586 80.6347V75.8467H100.829V89.1667H98.7586V87.6727C98.4226 88.1527 97.9546 88.5487 97.3546 88.8607C96.7666 89.1727 96.0886 89.3287 95.3206 89.3287C94.4566 89.3287 93.6646 89.1127 92.9446 88.6807C92.2366 88.2367 91.6726 87.6247 91.2526 86.8447C90.8446 86.0527 90.6406 85.1587 90.6406 84.1627ZM98.7586 84.1987C98.7586 83.5147 98.6146 82.9207 98.3266 82.4167C98.0506 81.9127 97.6846 81.5287 97.2286 81.2647C96.7726 81.0007 96.2806 80.8687 95.7526 80.8687C95.2246 80.8687 94.7326 81.0007 94.2766 81.2647C93.8206 81.5167 93.4486 81.8947 93.1606 82.3987C92.8846 82.8907 92.7466 83.4787 92.7466 84.1627C92.7466 84.8467 92.8846 85.4467 93.1606 85.9627C93.4486 86.4787 93.8206 86.8747 94.2766 87.1507C94.7446 87.4147 95.2366 87.5467 95.7526 87.5467C96.2806 87.5467 96.7726 87.4147 97.2286 87.1507C97.6846 86.8867 98.0506 86.5027 98.3266 85.9987C98.6146 85.4827 98.7586 84.8827 98.7586 84.1987Z" fill="url(#paint1_linear_31_394)"/>
<path d="M77.9898 65.2616C77.7559 64.9828 77.7697 64.5787 78.0079 64.3167L78.0784 64.249L89.0903 55.0089C89.3943 54.7537 89.8477 54.7934 90.1029 55.0975C90.3367 55.3762 90.3229 55.7804 90.0848 56.0424L90.0143 56.1101L79.0024 65.3502C78.6983 65.6053 78.2449 65.5657 77.9898 65.2616Z" fill="white"/>
<path d="M81.3388 55.5797C80.9433 55.5459 80.65 55.198 80.6837 54.8024C80.7144 54.4429 81.0048 54.1678 81.3545 54.1461L81.461 54.1474L89.6132 54.8429C89.9739 54.8737 90.2493 55.1657 90.2697 55.5164L90.268 55.6232L89.538 63.7731C89.5026 64.1685 89.1534 64.4603 88.758 64.4249C88.3986 64.3927 88.1247 64.1012 88.1045 63.7514L88.1062 63.6449L88.7714 56.2138L81.3388 55.5797Z" fill="white"/>
<defs>
<linearGradient id="paint0_linear_31_394" x1="93.5405" y1="-125.781" x2="186.413" y2="101.942" gradientUnits="userSpaceOnUse">
<stop offset="0.00887753" stop-color="#DEF9FA"/>
<stop offset="0.1723" stop-color="#BEF3F5"/>
<stop offset="0.4204" stop-color="#9DEDF0"/>
<stop offset="0.5512" stop-color="#7DE7EB"/>
<stop offset="0.7154" stop-color="#5CE1E6"/>
<stop offset="1" stop-color="#33BBCF"/>
</linearGradient>
<linearGradient id="paint1_linear_31_394" x1="91.6243" y1="-0.0494849" x2="116.466" y2="95.291" gradientUnits="userSpaceOnUse">
<stop offset="0.00887753" stop-color="#DEF9FA"/>
<stop offset="0.1723" stop-color="#BEF3F5"/>
<stop offset="0.4204" stop-color="#9DEDF0"/>
<stop offset="0.5512" stop-color="#7DE7EB"/>
<stop offset="0.7154" stop-color="#5CE1E6"/>
<stop offset="1" stop-color="#33BBCF"/>
</linearGradient>
</defs>
</svg>
